<svg width="165" height="35" viewBox="0 0 165 35" fill="none" xmlns="http://www.w3.org/2000/svg">
<g clip-path="url(#clip0_1682_6979)">
<path fill-rule="evenodd" clip-rule="evenodd" d="M77.8976 2.28638C80.2278 1.87441 82.4894 1.53111 84.8196 1.11914C84.8196 4.75819 84.8196 8.32859 84.8196 11.899C85.779 11.693 86.67 11.4183 87.5609 11.3497C89.8225 11.075 92.0156 11.075 94.2086 11.7617C96.2646 12.4483 97.4297 13.9588 97.7727 16.0187C97.9784 17.1859 98.0463 18.3532 98.0463 19.5204C98.0463 21.8549 98.0463 24.1893 97.9784 26.5238C97.8406 28.7897 97.2241 30.7809 95.3737 32.2914C94.1401 33.2527 92.7009 33.7333 91.1932 34.008C88.1777 34.4885 85.0936 34.4199 82.0782 34.008C80.8446 33.8706 79.611 33.6646 78.3089 33.5273C77.9661 33.4587 77.8291 33.3213 77.8291 33.0466C77.8291 32.8407 77.8291 32.6347 77.8291 32.4287C77.8291 22.6788 77.8291 12.8602 77.8291 3.11032C77.8291 2.76701 77.8291 2.56102 77.8976 2.28638ZM84.8196 28.3777C86.1902 28.515 87.4924 28.5837 88.7945 28.3777C90.1652 28.1031 90.919 27.3478 90.919 25.9059C90.9875 23.7774 91.0561 21.5803 90.9875 19.4518C90.919 17.9411 90.3022 17.3232 88.863 17.1173C87.4924 16.9113 86.2587 17.3232 85.0251 17.8725C84.8881 17.9411 84.8196 18.2158 84.8196 18.3532C84.8196 20.2756 84.8196 22.2668 84.8196 24.1893C84.8196 25.5626 84.8196 26.9358 84.8196 28.3777Z" fill="#DBDCE0"/>
<path fill-rule="evenodd" clip-rule="evenodd" d="M164.662 33.9392C164.183 33.9392 163.771 33.9392 163.36 33.9392C161.441 33.9392 159.522 33.9392 157.603 33.9392C157.192 33.9392 156.986 33.802 156.712 33.4587C154.862 30.3002 152.942 27.1418 151.093 23.9834C151.024 23.9148 150.955 23.846 150.887 23.6401C150.887 27.1418 150.887 30.5062 150.887 33.8706C150.681 33.8706 150.475 33.8706 150.339 33.8706C148.351 33.8706 146.432 33.8706 144.444 33.8706C143.965 33.8706 143.828 33.7333 143.828 33.3213C143.828 31.1242 143.828 28.927 143.828 26.6612C143.828 18.7651 143.828 10.8004 143.828 2.90433C143.828 2.21772 143.828 2.21772 144.513 2.14905C146.432 1.80575 148.351 1.53111 150.27 1.1878C150.407 1.1878 150.612 1.1878 150.818 1.11914C150.818 7.77929 150.818 14.4395 150.818 21.031C150.887 21.031 150.887 21.031 150.955 21.0996C151.161 20.8249 151.297 20.5503 151.503 20.2756C153.286 17.4606 154.999 14.7141 156.78 11.899C156.986 11.5557 157.261 11.3497 157.671 11.3497C159.727 11.3497 161.784 11.3497 163.839 11.3497C164.045 11.3497 164.319 11.3497 164.662 11.3497C164.525 11.5557 164.456 11.7617 164.387 11.899C162.263 15.1947 160.207 18.5592 158.083 21.8549C157.877 22.1982 157.809 22.4729 158.083 22.8848C160.207 26.3865 162.332 29.9569 164.456 33.5273C164.525 33.6646 164.593 33.7333 164.662 33.9392Z" fill="#DBDCE0"/>
<path fill-rule="evenodd" clip-rule="evenodd" d="M75.0192 27.6916C75.0192 27.8976 75.0192 28.035 75.0192 28.1723C75.0192 29.7515 75.0192 31.3307 75.0192 32.9099C75.0192 33.2532 74.9506 33.3906 74.608 33.4592C71.4554 34.1458 68.3028 34.3518 65.0817 34.2144C63.574 34.1458 62.0663 33.8025 60.6956 33.1846C58.1599 32.0173 56.7206 29.9575 56.241 27.2797C56.0353 26.3184 56.0353 25.2885 56.0353 24.3272C56.0353 22.6107 55.9668 20.8942 56.0353 19.1777C56.1038 17.2551 56.6521 15.4699 57.9542 13.9594C59.0508 12.6548 60.5585 11.9682 62.2034 11.6249C65.0132 11.0069 67.8231 11.0069 70.5645 11.9682C73.3743 12.9295 75.0877 14.9893 75.4303 17.873C75.7045 20.1389 75.636 22.4734 75.773 24.8765C75.4303 24.8765 75.2248 24.8765 75.0192 24.8765C71.2498 24.8765 67.4119 24.8765 63.6426 24.8765C63.1628 24.8765 63.0257 25.0138 63.0943 25.4258C63.1628 25.7691 63.0943 26.1124 63.1628 26.4557C63.3685 27.623 64.0538 28.3096 65.2188 28.3783C66.6581 28.4469 68.0973 28.5156 69.5364 28.4469C71.2498 28.3096 72.9631 28.035 74.6765 27.829C74.8135 27.6916 74.882 27.6916 75.0192 27.6916ZM65.9042 20.0016C66.3839 20.0016 66.8636 20.0016 67.2749 20.0016C68.7826 20.0016 68.7826 20.0016 68.6455 18.4911C68.5085 17.4611 67.9602 16.7058 66.9322 16.5685C66.2468 16.4312 65.493 16.4312 64.8076 16.5685C63.9853 16.7058 63.3685 17.2551 63.1628 18.0791C63.0943 18.5597 63.0943 19.109 63.0943 19.5896C63.0943 19.9329 63.2313 20.0016 63.5055 20.0016C64.3279 20.0016 65.0817 20.0016 65.9042 20.0016Z" fill="#DBDCE0"/>
<path fill-rule="evenodd" clip-rule="evenodd" d="M142.183 22.6797C142.114 24.2589 142.114 25.7694 141.908 27.2799C141.429 30.7817 139.372 32.9788 135.877 33.8028C133.068 34.4895 130.189 34.4895 127.379 33.5969C124.364 32.6355 122.65 30.507 122.102 27.4173C121.896 26.2501 121.896 25.0828 121.896 23.9156C121.896 22.199 121.827 20.5512 121.965 18.8346C122.308 14.8522 124.501 12.3804 128.476 11.5565C131.217 11.0072 133.958 11.0072 136.631 11.8998C139.578 12.8611 141.291 14.9896 141.771 18.0107C142.114 19.5212 142.045 21.1004 142.183 22.6797ZM135.055 22.6797C135.055 21.5811 135.055 20.4825 135.055 19.3839C135.055 18.354 134.37 17.4614 133.341 17.1867C132.519 16.9121 131.696 16.9121 130.874 17.1181C129.709 17.3927 128.955 18.2167 128.955 19.3152C128.887 21.5811 128.887 23.7783 128.955 26.0441C128.955 27.1427 129.641 27.9666 130.669 28.2413C131.285 28.3786 131.971 28.4472 132.587 28.3786C134.164 28.2413 135.055 27.2799 135.055 25.7008C135.055 24.6709 135.055 23.7096 135.055 22.6797Z" fill="#DBDCE0"/>
<path fill-rule="evenodd" clip-rule="evenodd" d="M120.184 22.8861C120.046 24.328 120.046 26.0446 119.772 27.6925C119.155 31.1255 117.031 33.0481 113.741 33.8033C111.069 34.4213 108.395 34.4213 105.723 33.666C102.57 32.7734 100.72 30.6449 100.103 27.4865C99.9663 26.7312 99.8974 25.9073 99.8974 25.0834C99.8974 23.2294 99.8294 21.3756 99.8974 19.5218C99.9663 17.1186 100.72 14.9901 102.57 13.3422C103.804 12.2436 105.311 11.6944 106.956 11.4197C109.63 11.0077 112.302 11.0077 114.907 11.969C117.785 12.9989 119.43 15.1274 119.84 18.0799C120.046 19.5904 120.046 21.1009 120.184 22.8861ZM106.888 22.6802C106.888 23.7101 106.819 24.6713 106.888 25.7013C106.888 25.8386 106.888 25.976 106.888 26.1819C107.025 27.2118 107.504 27.9671 108.533 28.2417C109.218 28.3791 109.903 28.4477 110.588 28.4477C112.096 28.3105 112.987 27.3491 112.987 25.976C112.987 23.8475 112.987 21.7189 112.987 19.5904C112.987 18.4919 112.302 17.5993 111.206 17.2559C110.315 16.9812 109.492 16.9812 108.601 17.2559C107.573 17.5305 106.888 18.3545 106.888 19.4531C106.888 20.483 106.888 21.5816 106.888 22.6802Z" fill="#DBDCE0"/>
<path fill-rule="evenodd" clip-rule="evenodd" d="M28.6222 32.7719C27.3201 33.184 26.0179 33.6645 24.7843 34.0078C23.2766 34.3512 21.7003 34.4199 20.124 34.0078C17.6568 33.3212 16.3547 31.6047 15.8749 29.2016C15.6693 28.0343 15.6693 26.7984 15.8749 25.5625C16.3547 23.3654 17.7253 21.9921 19.9184 21.5802C20.9464 21.3742 21.9745 21.3056 23.0024 21.2368C24.3731 21.1682 25.8124 21.2368 27.183 21.2368C27.5942 21.2368 27.7313 21.0995 27.7313 20.6875C27.7313 20.3442 27.6627 20.0009 27.7313 19.6576C27.7313 17.8724 26.9088 17.4605 25.4696 17.3918C23.2081 17.3231 20.9464 17.3231 18.6848 17.2545C18.4792 17.2545 18.2736 17.2545 17.9995 17.2545C18.068 16.7052 18.068 16.2245 18.1366 15.6753C18.2736 14.3707 18.4107 13.0662 18.5477 11.6929C18.5477 11.5556 18.8219 11.3496 18.8904 11.3496C21.7688 11.3496 24.7158 11.3496 27.5942 11.487C28.5537 11.487 29.4446 11.7615 30.3356 12.0362C32.8027 12.7229 34.1048 14.5081 34.4476 16.9798C34.5846 18.0097 34.6531 19.0397 34.6531 20.0696C34.6531 24.4639 34.6531 28.8583 34.6531 33.2526C34.6531 33.7332 34.5161 33.8706 34.0363 33.8706C32.4601 33.8706 30.8838 33.8706 29.3761 33.8706C28.8963 33.8706 28.7592 33.6645 28.6907 33.2526C28.6907 33.184 28.6222 32.9093 28.6222 32.7719ZM25.6067 25.9745C25.127 25.9745 24.5787 25.9745 24.099 25.9745C23.0709 25.9745 22.6598 26.4551 22.6598 27.485C22.6598 28.6522 23.2081 29.2016 24.3731 29.2702C25.4696 29.3389 26.4977 28.9955 27.4571 28.515C27.5942 28.4463 27.6627 28.2403 27.7313 28.0343C27.7313 27.485 27.7313 27.0044 27.7313 26.4551C27.7313 26.1118 27.5942 26.0432 27.3201 26.0432C26.7033 25.9745 26.155 25.9745 25.6067 25.9745Z" fill="#DBDCE0"/>
<path fill-rule="evenodd" clip-rule="evenodd" d="M16.2861 0.501953C16.2861 1.87518 16.2861 3.11109 16.2861 4.41566C16.2861 4.96494 16.2861 5.44557 16.2861 5.99487C16.2861 6.33817 16.2176 6.40684 15.8749 6.40684C14.984 6.40684 14.0244 6.40684 13.1335 6.40684C12.7909 6.40684 12.5167 6.47549 12.1741 6.54415C11.5573 6.68148 11.2146 7.09345 11.2146 7.7114C11.1461 8.9473 11.2146 10.1832 11.2146 11.4191C12.8594 11.4191 14.5727 11.4191 16.3546 11.4191C16.2861 12.3804 16.2176 13.2043 16.0805 14.0969C16.012 14.9895 15.8749 15.8134 15.8063 16.706C15.8063 17.118 15.6693 17.2553 15.1895 17.2553C13.8189 17.2553 12.5167 17.2553 11.1461 17.2553C11.1461 22.8169 11.1461 28.3098 11.1461 33.8714C8.81591 33.8714 6.5543 33.8714 4.22416 33.8714C4.15562 33.6654 4.15562 33.4595 4.15562 33.1848C4.15562 28.1039 4.15562 22.9542 4.15562 17.8733C4.15562 17.3926 4.08708 17.2553 3.53882 17.2553C2.64788 17.324 1.68841 17.2553 0.728938 17.2553C0.728938 17.0493 0.728938 16.8434 0.728938 16.6374C0.728938 15.1268 0.728938 13.6163 0.728938 12.1744C0.728938 11.3504 0.660404 11.4191 1.48281 11.4191C2.23668 11.4191 2.99055 11.4191 3.74442 11.4191C4.08708 11.4878 4.15562 11.3504 4.15562 11.0071C4.15562 9.63391 4.15562 8.26069 4.22416 6.88746C4.29269 5.17093 4.77243 3.52305 6.07457 2.28715C7.03404 1.32589 8.26765 0.84526 9.56978 0.707938C11.7629 0.570615 14.0244 0.570615 16.2861 0.501953Z" fill="#DBDCE0"/>
<path fill-rule="evenodd" clip-rule="evenodd" d="M54.1163 17.7351C53.0199 17.5292 51.9918 17.3918 50.9638 17.2545C49.182 16.9799 47.4686 16.8425 45.6867 17.1859C44.5902 17.3918 43.9049 18.1471 43.9049 19.2458C43.8363 21.5802 43.8363 23.846 43.9049 26.1805C43.9049 27.2791 44.5216 28.0344 45.6182 28.1717C46.9203 28.309 48.2224 28.3776 49.4561 28.309C50.8952 28.2404 52.3345 27.8971 53.7737 27.6911C53.8422 27.6911 53.9793 27.6911 54.1163 27.6911C54.1163 27.8283 54.1849 27.9657 54.1849 28.103C54.1849 29.6823 54.1849 31.3301 54.1849 32.9094C54.1849 33.2527 54.1163 33.3899 53.7737 33.4586C51.1694 34.0079 48.5652 34.4199 45.9609 34.2139C43.6307 34.0765 41.4377 33.5273 39.5872 31.8794C38.0795 30.5061 37.1885 28.7209 37.0515 26.7298C36.9144 24.2579 36.8459 21.7862 36.9829 19.3144C37.12 16.4992 38.2851 14.1647 40.7523 12.6542C42.123 11.8303 43.6307 11.4183 45.2755 11.2124C48.1539 10.869 50.9638 11.281 53.7737 11.899C53.9108 11.9676 54.1849 12.105 54.1849 12.2423C54.1849 14.0961 54.1163 15.8813 54.1163 17.7351Z" fill="#DBDCE0"/>
</g>
<defs>
<clipPath id="clip0_1682_6979">
<rect width="164" height="35" fill="white" transform="translate(0.727539)"/>
</clipPath>
</defs>
</svg>
