<svg width="41" height="40" viewBox="0 0 41 40" fill="none" xmlns="http://www.w3.org/2000/svg">
<g clip-path="url(#clip0_1682_7116)">
<mask id="mask0_1682_7116" style="mask-type:alpha" maskUnits="userSpaceOnUse" x="0" y="0" width="41" height="40">
<path d="M0.65332 0.0117188H40.6407V39.9943H0.65332V0.0117188Z" fill="white"/>
</mask>
<g mask="url(#mask0_1682_7116)">
<path fill-rule="evenodd" clip-rule="evenodd" d="M20.6471 0.0117188C15.2171 0.0117188 14.5362 0.0347346 12.4036 0.132036C10.2755 0.2291 8.82213 0.567116 7.55038 1.0614C6.23562 1.57227 5.12062 2.25593 4.00903 3.36743C2.89753 4.47902 2.21388 5.59402 1.703 6.90878C1.20872 8.18053 0.870701 9.63394 0.773638 11.762C0.676336 13.8946 0.65332 14.5754 0.65332 20.0054C0.65332 25.4354 0.676336 26.1162 0.773638 28.2488C0.870701 30.3769 1.20872 31.8303 1.703 33.102C2.21388 34.4168 2.89753 35.5318 4.00903 36.6434C5.12062 37.7549 6.23562 38.4385 7.55038 38.9495C8.82213 39.4437 10.2755 39.7817 12.4036 39.8788C14.5362 39.9761 15.2171 39.9991 20.6471 39.9991C26.077 39.9991 26.7578 39.9761 28.8904 39.8788C31.0185 39.7817 32.4719 39.4437 33.7436 38.9495C35.0584 38.4385 36.1734 37.7549 37.285 36.6434C38.3965 35.5318 39.0801 34.4168 39.5911 33.102C40.0853 31.8303 40.4233 30.3769 40.5204 28.2488C40.6177 26.1162 40.6407 25.4354 40.6407 20.0054C40.6407 14.5754 40.6177 13.8946 40.5204 11.762C40.4233 9.63394 40.0853 8.18053 39.5911 6.90878C39.0801 5.59402 38.3965 4.47902 37.285 3.36743C36.1734 2.25593 35.0584 1.57227 33.7436 1.0614C32.4719 0.567116 31.0185 0.2291 28.8904 0.132036C26.7578 0.0347346 26.077 0.0117188 20.6471 0.0117188ZM20.6471 3.61418C25.9855 3.61418 26.6179 3.63458 28.7262 3.73077C30.6755 3.81966 31.7342 4.14537 32.4387 4.41918C33.372 4.78188 34.038 5.21513 34.7376 5.91481C35.4373 6.61442 35.8705 7.28045 36.2332 8.2137C36.5071 8.91823 36.8328 9.97688 36.9217 11.9262C37.0178 14.0345 37.0382 14.6669 37.0382 20.0054C37.0382 25.3439 37.0178 25.9763 36.9217 28.0846C36.8328 30.0339 36.5071 31.0926 36.2332 31.7971C35.8705 32.7304 35.4373 33.3964 34.7376 34.096C34.038 34.7957 33.372 35.2289 32.4387 35.5916C31.7342 35.8655 30.6755 36.1912 28.7262 36.2801C26.6182 36.3762 25.9859 36.3966 20.6471 36.3966C15.3081 36.3966 14.6759 36.3762 12.5678 36.2801C10.6185 36.1912 9.55983 35.8655 8.8553 35.5916C7.92205 35.2289 7.25602 34.7957 6.55642 34.096C5.85681 33.3964 5.42348 32.7304 5.06078 31.7971C4.78697 31.0926 4.46126 30.0339 4.37237 28.0846C4.27618 25.9763 4.25578 25.3439 4.25578 20.0054C4.25578 14.6669 4.27618 14.0345 4.37237 11.9262C4.46126 9.97688 4.78697 8.91823 5.06078 8.2137C5.42348 7.28045 5.85673 6.61442 6.55642 5.91481C7.25602 5.21513 7.92205 4.78188 8.8553 4.41918C9.55983 4.14537 10.6185 3.81966 12.5678 3.73077C14.6761 3.63458 15.3085 3.61418 20.6471 3.61418Z" fill="#DBDCE0"/>
</g>
<path fill-rule="evenodd" clip-rule="evenodd" d="M20.6469 26.6699C16.9662 26.6699 13.9823 23.6861 13.9823 20.0053C13.9823 16.3246 16.9662 13.3407 20.6469 13.3407C24.3277 13.3407 27.3115 16.3246 27.3115 20.0053C27.3115 23.6861 24.3277 26.6699 20.6469 26.6699ZM20.6469 9.73828C14.9766 9.73828 10.3799 14.3349 10.3799 20.0053C10.3799 25.6757 14.9766 30.2723 20.6469 30.2723C26.3173 30.2723 30.9139 25.6757 30.9139 20.0053C30.9139 14.3349 26.3173 9.73828 20.6469 9.73828Z" fill="#DBDCE0"/>
<path fill-rule="evenodd" clip-rule="evenodd" d="M33.7194 9.33288C33.7194 10.658 32.6452 11.7321 31.3201 11.7321C29.9951 11.7321 28.9209 10.658 28.9209 9.33288C28.9209 8.0078 29.9951 6.93359 31.3201 6.93359C32.6452 6.93359 33.7194 8.0078 33.7194 9.33288Z" fill="#DBDCE0"/>
</g>
<defs>
<clipPath id="clip0_1682_7116">
<rect width="40" height="40" fill="white" transform="translate(0.65332)"/>
</clipPath>
</defs>
</svg>
