<svg viewBox="0 0 94 22" width="94" height="22" fill="none" xmlns="http://www.w3.org/2000/svg"><path d="M92.592 20.232s.01 0 0 0c.229 0 .426-.174.426-.386v-.02c0-.288-.187-.433-.581-.433h-.623v1.523h.239v-.665h.29l.01.01.447.655h.25l-.489-.684h.031Zm-.27-.154h-.27v-.521h.353c.177 0 .385.029.385.24-.01.261-.218.28-.468.28ZM.566 3.53h3.478v11.794H10.5v2.989H.555V3.53h.01Zm11.482 4.764h3.354v10.019h-3.354V8.294Zm1.672-4.985c1.069 0 1.941.82 1.941 1.803 0 .993-.872 1.803-1.941 1.803-1.07 0-1.942-.81-1.942-1.803 0-.993.872-1.803 1.942-1.803Zm15.687.221h3.353v8.833l3.8-4.079h4.111l-4.401 4.638 4.308 5.39h-4.215l-3.561-4.956h-.042v4.957h-3.353V3.53ZM17.25 8.294h3.218v1.37h.041c.655-1.042 1.88-1.669 3.177-1.62 3.395 0 4.018 2.072 4.018 4.772v5.497h-3.353v-4.87c0-1.166-.02-2.661-1.744-2.661-1.744 0-2.014 1.263-2.014 2.575v4.956h-3.354l.01-10.019Z" fill="#585C6D"/><path d="M47.722 12.133v-.049c0-1.022-.903-1.86-2.004-1.86h-.052c-1.214-.068-2.273.79-2.367 1.909h4.423Zm2.834 4.445c-1.131 1.273-2.813 2.006-4.578 1.996-3.354 0-6.032-2.073-6.032-5.294 0-3.22 2.678-5.294 6.032-5.294 3.135 0 5.097 2.073 5.097 5.294v.974H43.3c.197 1.138 1.288 1.977 2.523 1.948.966-.01 1.869-.463 2.388-1.225l2.346 1.601Zm7.496-5.863c-1.671 0-2.678 1.042-2.678 2.556 0 1.513 1.007 2.555 2.678 2.555 1.672 0 2.679-1.042 2.679-2.556 0-1.523-.997-2.555-2.679-2.555Zm5.762 7.589h-3.083v-1.33h-.042c-.779.983-2.014 1.561-3.333 1.58-3.218 0-5.336-2.16-5.336-5.206 0-2.807 1.88-5.371 4.963-5.371 1.391 0 2.678.356 3.436 1.33h.042V3.531h3.353v14.773Zm22.623.01h-3.354v-4.87c0-1.157-.02-2.661-1.744-2.661-1.744 0-2.014 1.263-2.014 2.574v4.957h-3.353V8.294h3.218v1.37h.042c.654-1.041 1.879-1.659 3.177-1.62 3.394 0 4.017 2.073 4.017 4.773l.01 5.497ZM72.203 6.925c-1.07 0-1.942-.82-1.942-1.803s.883-1.803 1.942-1.803c1.07 0 1.941.82 1.941 1.803 0 .984-.882 1.803-1.941 1.803Zm1.671 11.389h-3.353V8.294h3.353v10.02ZM88.108.426H68.84c-.903-.01-1.661.675-1.671 1.514v17.965c.01.839.768 1.523 1.671 1.514h19.27c.903.01 1.66-.675 1.67-1.514V1.94c-.01-.848-.767-1.533-1.67-1.514Zm4.246 18.283c-.84.01-1.526.656-1.526 1.427 0 .781.696 1.427 1.537 1.427.851 0 1.547-.646 1.547-1.427 0-.78-.685-1.427-1.526-1.427h-.031Zm0 2.7h-.02c-.737 0-1.35-.569-1.35-1.254 0-.684.613-1.253 1.35-1.253.737 0 1.34.55 1.35 1.234v.02c.01.674-.572 1.243-1.298 1.253h-.031Z" fill="#585C6D"/></svg>