<svg width="104" height="24" viewBox="0 0 104 24" fill="none" xmlns="http://www.w3.org/2000/svg">
<g clip-path="url(#clip0_1682_7053)">
<path d="M0.34668 0.888672H10.7762C10.7762 4.36345 10.7762 7.83823 10.7762 11.313C7.2997 11.313 3.82319 11.313 0.34668 11.313V0.888672Z" fill="#DBDCE0"/>
<path d="M11.8408 0.888672H22.2704C22.2704 4.36345 22.2704 7.83823 22.2704 11.313C18.7938 11.313 15.3174 11.313 11.8408 11.313C11.8408 7.83823 11.8408 4.36345 11.8408 0.888672Z" fill="#DBDCE0"/>
<path d="M94.3942 4.85858C95.3587 4.23249 96.5991 4.17614 97.6827 4.4704C97.6889 5.11527 97.6827 5.76012 97.6889 6.40501C97.1751 6.17963 96.5676 6.02936 96.0289 6.25474C95.5969 6.42381 95.3462 6.8683 95.2774 7.30656C95.196 7.86381 95.2525 8.43354 95.2334 8.99701C96.336 8.99701 97.432 8.99701 98.5347 8.99701C98.5409 8.28328 98.5285 7.56954 98.5471 6.85581C99.2925 6.64292 100.038 6.40501 100.777 6.17963C100.784 7.11874 100.771 8.0579 100.784 9.00328C101.529 8.99074 102.274 9.00328 103.013 8.99701V10.8252C102.268 10.7939 101.523 10.8189 100.771 10.8127C100.777 11.8645 100.771 12.9163 100.771 13.9681C100.784 14.5504 100.74 15.1389 100.808 15.7149C100.852 16.0593 100.971 16.4349 101.297 16.6165C101.836 16.917 102.519 16.7855 103.013 16.4537V18.3007C102.368 18.5824 101.648 18.6638 100.952 18.6137C100.288 18.5636 99.6058 18.3257 99.1734 17.7998C98.6725 17.205 98.5471 16.4036 98.5347 15.646C98.5285 14.0307 98.5347 12.4155 98.5347 10.8001C97.432 10.8001 96.336 10.8001 95.2334 10.8001C95.2334 13.3358 95.2334 15.8715 95.2334 18.4071C94.4818 18.4071 93.7302 18.4071 92.9787 18.4071C92.9787 15.8715 92.972 13.3358 92.9787 10.8064C92.4587 10.7939 91.9325 10.8064 91.4062 10.8001C91.4062 10.1991 91.4125 9.59803 91.4062 8.99074C91.9262 8.97821 92.4462 8.98448 92.972 8.98448C93.0098 8.1831 92.8907 7.36292 93.1289 6.5803C93.3294 5.89163 93.7805 5.25927 94.3942 4.85858Z" fill="#DBDCE0"/>
<path d="M46.1042 4.99048C46.5615 4.92161 47.0504 5.07813 47.3508 5.43498C47.7015 5.82316 47.7704 6.44298 47.5073 6.90005C47.2193 7.41343 46.5677 7.65134 46.0042 7.52614C45.4215 7.41969 44.9331 6.87498 44.9579 6.26769C44.9393 5.63534 45.4779 5.06561 46.1042 4.99048Z" fill="#DBDCE0"/>
<path d="M28.8154 5.27167C29.9116 5.27167 31.0016 5.27167 32.0977 5.27167C33.1188 7.86365 34.1461 10.4494 35.1671 13.0414C35.4302 13.6925 35.6745 14.3436 35.9438 14.9885C37.2593 11.7516 38.5873 8.52107 39.8964 5.27793C40.9488 5.25914 42.0011 5.27167 43.0535 5.27167C43.0535 9.65427 43.0535 14.0369 43.0535 18.4195C42.2955 18.4195 41.5376 18.4257 40.7796 18.4132C40.7859 15.1826 40.7796 11.9457 40.7859 8.70889C40.7859 8.56489 40.7797 8.42089 40.7734 8.27062C40.7295 8.33951 40.6919 8.40836 40.6544 8.48351C39.3514 11.7955 38.0235 15.095 36.7269 18.407C36.1881 18.4257 35.6494 18.407 35.1045 18.4195C33.7577 15.1075 32.4297 11.7892 31.0955 8.47725C31.0579 8.40836 31.0204 8.33951 30.9828 8.27689C30.9577 9.69182 30.9765 11.1131 30.9702 12.528C30.9702 14.4876 30.9702 16.4536 30.9702 18.4132C30.2561 18.4132 29.5358 18.4132 28.8217 18.4132C28.8154 14.0369 28.8154 9.65427 28.8154 5.27167Z" fill="#DBDCE0"/>
<path d="M52.3126 8.98445C53.4024 8.67143 54.5735 8.68396 55.6637 8.99699C55.889 9.05961 56.1019 9.14725 56.309 9.26619C56.2961 9.98619 56.309 10.7062 56.3024 11.42C55.5761 10.8627 54.6552 10.5121 53.7281 10.6311C52.9952 10.7 52.2935 11.0756 51.8552 11.6704C51.2912 12.4029 51.1597 13.3796 51.2601 14.2812C51.3352 14.9824 51.6232 15.6899 52.1681 16.1532C52.7384 16.6603 53.5339 16.8356 54.2792 16.7793C55.0121 16.6916 55.7072 16.3848 56.3024 15.9465C56.309 16.629 56.3024 17.3052 56.309 17.9876C55.3881 18.5385 54.2792 18.6763 53.2268 18.6262C52.1495 18.5699 51.0721 18.1629 50.289 17.3991C49.437 16.5789 48.9801 15.4144 48.9237 14.2436C48.8672 13.029 49.1179 11.7581 49.813 10.7438C50.3957 9.88605 51.3104 9.27245 52.3126 8.98445Z" fill="#DBDCE0"/>
<path d="M76.9484 8.84637C77.9884 8.66481 79.0843 8.79628 80.0679 9.17192C80.0679 9.86063 80.0679 10.5556 80.0679 11.2443C79.3786 10.7685 78.5332 10.518 77.6999 10.5431C77.2804 10.5618 76.8168 10.7372 76.6226 11.1378C76.4723 11.5323 76.5724 12.0519 76.9484 12.2898C77.5875 12.7156 78.3515 12.8972 79.0155 13.2853C79.5355 13.5796 80.0426 13.9615 80.3057 14.5125C80.8008 15.5455 80.5941 16.9166 79.7168 17.6867C78.8839 18.4631 77.6812 18.6822 76.5786 18.6384C75.7959 18.5883 75.0066 18.4317 74.2861 18.1125C74.2924 17.3862 74.2799 16.6599 74.2924 15.9337C74.8999 16.3719 75.5955 16.6913 76.3408 16.8165C76.8546 16.8978 77.4181 16.9041 77.9003 16.6725C78.3577 16.4471 78.4452 15.7897 78.1697 15.389C77.9128 15.0822 77.5372 14.9132 77.1861 14.7441C76.5226 14.4436 75.8208 14.1932 75.2381 13.7486C74.8248 13.4293 74.5177 12.9785 74.3928 12.4714C74.211 11.7201 74.2675 10.8749 74.7057 10.2237C75.2008 9.45992 76.0652 9.0029 76.9484 8.84637Z" fill="#DBDCE0"/>
<path d="M61.3446 9.14038C61.9646 8.76473 62.7601 8.73344 63.4366 8.96509C63.4304 9.71638 63.4366 10.4677 63.4366 11.219C62.9921 10.931 62.4344 10.8058 61.9144 10.8621C61.2757 10.9373 60.7681 11.4256 60.505 11.9891C60.217 12.5838 60.1668 13.26 60.1859 13.9112C60.1859 15.4138 60.1859 16.9164 60.1859 18.419C59.4464 18.419 58.701 18.419 57.9619 18.419C57.9619 15.2823 57.9619 12.1394 57.9619 9.00264C58.701 8.99011 59.4464 8.99638 60.1859 9.00264C60.1792 9.54109 60.1859 10.0795 60.1859 10.6179C60.4237 10.0294 60.7806 9.45967 61.3446 9.14038Z" fill="#DBDCE0"/>
<path d="M45.165 8.99628C45.9104 8.99628 46.6624 8.98375 47.4077 9.00255C47.4015 12.1393 47.4077 15.2822 47.4015 18.4189C46.6561 18.4189 45.9104 18.4189 45.165 18.4189C45.165 15.2759 45.165 12.1392 45.165 8.99628Z" fill="#DBDCE0"/>
<path d="M72.7895 11.1934C72.4011 10.3231 71.6931 9.59684 70.8162 9.20239C69.814 8.74537 68.6678 8.68275 67.5904 8.82048C66.45 8.96448 65.3478 9.49666 64.6273 10.4045C63.9695 11.2121 63.65 12.2515 63.5878 13.2845C63.4998 14.4991 63.7002 15.7888 64.4144 16.8031C65.022 17.6796 65.9802 18.2807 67.0202 18.4998C67.8847 18.6814 68.7931 18.6814 69.6638 18.4998C70.6784 18.2932 71.6242 17.7297 72.2509 16.9033C72.8646 16.1207 73.1713 15.1377 73.2402 14.161C73.3091 13.1593 73.2091 12.12 72.7895 11.1934ZM70.6158 15.5196C70.4029 16.0017 70.0082 16.4149 69.5069 16.609C68.9246 16.8344 68.2669 16.8469 67.6655 16.6904C67.0518 16.5276 66.5318 16.0894 66.2495 15.5259C65.8864 14.7996 65.83 13.9607 65.9051 13.1656C65.974 12.4456 66.2246 11.7005 66.7758 11.1996C67.1766 10.824 67.722 10.6424 68.2607 10.6111C68.9371 10.5673 69.6575 10.7614 70.146 11.2497C70.666 11.7631 70.8664 12.5019 70.9229 13.2156C70.9726 13.992 70.9415 14.7996 70.6158 15.5196Z" fill="#DBDCE0"/>
<path d="M90.854 11.4706C90.5096 10.5377 89.8144 9.72382 88.9184 9.27933C87.8913 8.75965 86.6949 8.68453 85.5736 8.82227C84.6656 8.94124 83.7758 9.28556 83.0807 9.89289C82.2349 10.6192 81.7402 11.6897 81.5896 12.7854C81.4518 13.8811 81.4958 15.0331 81.9469 16.0598C82.3727 17.0678 83.2184 17.8817 84.2393 18.2824C85.2416 18.6769 86.3567 18.7207 87.4153 18.5517C88.4927 18.3764 89.5198 17.8066 90.1904 16.9301C90.9042 16.0285 91.2113 14.8577 91.2113 13.7183C91.2238 12.9607 91.13 12.1844 90.854 11.4706ZM88.8184 14.6636C88.7309 15.1583 88.5616 15.6529 88.2358 16.0473C87.91 16.4417 87.4216 16.6797 86.9202 16.7548C86.3816 16.8362 85.8118 16.7986 85.3042 16.5795C84.7593 16.3478 84.3398 15.8783 84.114 15.3336C83.8447 14.6887 83.7949 13.9687 83.8447 13.28C83.8949 12.6101 84.0829 11.9214 84.5278 11.4017C84.9287 10.9134 85.5487 10.6504 86.1749 10.6129C86.814 10.5691 87.4904 10.7131 87.9789 11.1451C88.43 11.5207 88.6807 12.0779 88.7936 12.6476C88.9313 13.3113 88.9313 14 88.8184 14.6636Z" fill="#DBDCE0"/>
<path d="M0.34668 12.377C3.82319 12.377 7.2997 12.377 10.7762 12.377C10.7762 15.8518 10.7762 19.3266 10.7762 22.8013H0.34668V12.377Z" fill="#DBDCE0"/>
<path d="M11.8408 12.377C15.3174 12.377 18.7938 12.377 22.2704 12.377C22.2704 15.8518 22.2704 19.3266 22.2704 22.8013H11.8408C11.8408 19.3266 11.8408 15.8518 11.8408 12.377Z" fill="#DBDCE0"/>
</g>
<defs>
<clipPath id="clip0_1682_7053">
<rect width="102.667" height="22.2222" fill="white" transform="translate(0.34668 0.888672)"/>
</clipPath>
</defs>
</svg>
