<svg viewBox="0 0 85 26" width="85" height="26" fill="none" xmlns="http://www.w3.org/2000/svg"><path fill-rule="evenodd" clip-rule="evenodd" d="M52.927 20.152c-4.881 3.595-11.967 5.511-18.056 5.511-8.136.027-16.01-2.965-22.046-8.424-.472-.394-.052-.971.5-.656a44.566 44.566 0 0 0 22.07 5.852 44.113 44.113 0 0 0 16.823-3.438c.84-.341 1.523.551.71 1.155Z" fill="#585C6D"/><path fill-rule="evenodd" clip-rule="evenodd" d="M54.974 17.817c-.63-.787-4.12-.367-5.695-.183-.472.052-.55-.368-.13-.657 2.781-1.968 7.374-1.39 7.899-.734.525.656-.132 5.249-2.756 7.453-.394.341-.787.158-.604-.289.578-1.495 1.916-4.776 1.286-5.59ZM49.384 3.094v-1.89a.47.47 0 0 1 .473-.472H58.439c.262 0 .472.184.498.447v1.653c0 .262-.236.63-.656 1.207l-4.409 6.325c1.653-.052 3.386.21 4.882 1.05.262.157.446.446.446.735v2.047c0 .289-.315.604-.63.446-2.835-1.47-6.194-1.443-9.028.026-.289.158-.604-.157-.604-.446V12.28a2.27 2.27 0 0 1 .315-1.312l5.118-7.349h-4.462a.456.456 0 0 1-.499-.446c-.026-.026-.026-.052-.026-.079ZM18.206 15.008h-2.598c-.237 0-.447-.21-.473-.446V1.23c0-.263.236-.499.499-.473h2.414c.237 0 .447.21.473.447v1.732h.052c.63-1.68 1.811-2.467 3.412-2.467s2.65.787 3.386 2.467A3.829 3.829 0 0 1 30.33.73c.656.236 1.207.656 1.653 1.207.814 1.129.656 2.756.656 4.2v8.424c0 .263-.236.473-.498.473h-2.599a.47.47 0 0 1-.472-.473V7.476c0-.551.053-1.968-.079-2.493-.183-.893-.787-1.155-1.522-1.155-.682.026-1.312.446-1.548 1.102-.263.683-.236 1.785-.236 2.546v7.086c0 .263-.237.499-.5.473H22.59a.47.47 0 0 1-.473-.473V7.476c0-1.496.236-3.674-1.6-3.674-1.838 0-1.785 2.126-1.785 3.674v7.086c-.053.236-.263.446-.525.446ZM66.258.469c3.858 0 5.958 3.307 5.958 7.532 0 4.068-2.31 7.296-5.958 7.296-3.779 0-5.852-3.307-5.852-7.454 0-4.146 2.1-7.374 5.852-7.374Zm.026 2.73c-1.915 0-2.047 2.624-2.047 4.25 0 1.628-.026 5.119 2.021 5.119 2.047 0 2.1-2.809 2.1-4.515 0-1.128-.053-2.467-.394-3.543-.262-.944-.84-1.312-1.68-1.312ZM77.23 15.01h-2.598a.47.47 0 0 1-.472-.473V1.178a.489.489 0 0 1 .498-.446h2.415c.21 0 .42.158.472.367v2.048h.053C78.333 1.309 79.356.443 81.14.443c1.154 0 2.31.42 3.044 1.575.683 1.076.683 2.86.683 4.147v8.398c-.027.236-.263.42-.5.42h-2.597c-.237 0-.42-.184-.473-.42V7.346c0-1.47.158-3.596-1.627-3.596a1.677 1.677 0 0 0-1.496 1.076c-.367.814-.42 1.627-.42 2.52v7.19a.537.537 0 0 1-.525.473ZM42.56 8.631c0 1.024.027 1.864-.498 2.756-.42.735-1.076 1.18-1.811 1.18-.997 0-1.575-.76-1.575-1.889 0-2.204 1.995-2.624 3.858-2.624l.026.577Zm2.625 6.351a.477.477 0 0 1-.604.053c-.866-.709-1.023-1.05-1.496-1.732-1.417 1.443-2.44 1.89-4.278 1.89-2.178 0-3.884-1.365-3.884-4.042-.052-1.864 1.05-3.57 2.782-4.252 1.417-.63 3.386-.735 4.882-.892v-.341c0-.63.052-1.365-.315-1.89a1.757 1.757 0 0 0-1.47-.682c-.997 0-1.863.498-2.1 1.574-.026.236-.21.446-.446.473l-2.52-.263c-.262-.026-.42-.262-.393-.525v-.026c.577-3.07 3.333-3.99 5.826-3.99 1.26 0 2.914.342 3.91 1.287 1.26 1.18 1.156 2.756 1.156 4.488v4.041c0 1.234.498 1.759.97 2.415.158.236.21.525 0 .682-.55.446-1.495 1.286-2.02 1.732ZM8.466 8.631c0 1.024.027 1.864-.472 2.756-.42.735-1.076 1.18-1.81 1.18-.998 0-1.575-.76-1.575-1.889 0-2.204 1.994-2.624 3.857-2.624v.577Zm2.625 6.351a.477.477 0 0 1-.604.053c-.866-.709-1.023-1.05-1.496-1.732-1.417 1.443-2.44 1.89-4.277 1.89-2.205 0-3.91-1.34-3.91-4.042C.75 9.287 1.852 7.58 3.584 6.899c1.417-.63 3.386-.735 4.881-.892v-.341c0-.63.053-1.365-.314-1.89a1.757 1.757 0 0 0-1.47-.682c-.997 0-1.864.498-2.1 1.574-.026.236-.21.446-.446.473l-2.52-.263c-.262-.026-.42-.262-.393-.525v-.026c.604-3.07 3.36-3.99 5.826-3.99 1.286 0 2.94.342 3.937 1.287 1.26 1.18 1.128 2.756 1.128 4.488v4.041c0 1.234.5 1.759.971 2.415.158.236.21.525 0 .682-.524.446-1.47 1.286-1.994 1.732Z" fill="#585C6D"/></svg>