<svg width="132" height="40" viewBox="0 0 132 40" fill="none" xmlns="http://www.w3.org/2000/svg">
<g clip-path="url(#clip0_1682_7002)">
<path fill-rule="evenodd" clip-rule="evenodd" d="M81.2993 30.6997C73.7221 36.2704 62.7229 39.2387 53.2717 39.2387C39.9912 39.2387 28.055 34.3593 19.0519 26.1862C18.3593 25.5356 18.9705 24.6817 19.8259 25.1696C29.5623 30.8217 41.6207 34.2372 54.0864 34.2372C62.4785 34.2372 71.7259 32.4888 80.1993 28.9106C81.503 28.382 82.5622 29.7645 81.2993 30.6997Z" fill="#DBDCE0"/>
<path fill-rule="evenodd" clip-rule="evenodd" d="M84.4763 27.0803C83.4986 25.8604 78.0805 26.511 75.6362 26.7956C74.9029 26.877 74.7807 26.2264 75.4325 25.7791C79.7915 22.7294 86.8798 23.624 87.6946 24.6405C88.5093 25.6571 87.4909 32.773 83.4172 36.1885C82.8061 36.7171 82.195 36.4325 82.4802 35.7412C83.3764 33.4235 85.4541 28.3408 84.4763 27.0803Z" fill="#DBDCE0"/>
<path fill-rule="evenodd" clip-rule="evenodd" d="M75.7994 4.26895V1.34129C75.7994 0.894009 76.1253 0.609375 76.5327 0.609375H89.8132C90.2203 0.609375 90.5874 0.934667 90.5874 1.34129V3.86233C90.5874 4.26895 90.2203 4.83822 89.5688 5.73278L82.6841 15.5323C85.2505 15.4916 87.9393 15.8576 90.2612 17.1588C90.791 17.4435 90.9128 17.8907 90.9537 18.2973V21.469C90.9537 21.9163 90.4648 22.4042 89.9759 22.1603C85.9024 20.0051 80.4842 19.8019 75.9624 22.2009C75.5143 22.4449 75.0254 21.9569 75.0254 21.5096V18.5006C75.0254 18.0127 75.0254 17.1995 75.5143 16.4675L83.4581 5.0822H76.5327C76.1253 5.04153 75.7994 4.71623 75.7994 4.26895Z" fill="#DBDCE0"/>
<path fill-rule="evenodd" clip-rule="evenodd" d="M27.403 22.7295H23.37C23.0034 22.6889 22.6774 22.4042 22.6367 22.0382V1.34131C22.6367 0.934684 23.0034 0.609391 23.4108 0.609391H27.1586C27.566 0.609391 27.8511 0.934684 27.8919 1.30065V3.98434H27.9733C28.9511 1.38197 30.7843 0.162109 33.2693 0.162109C35.795 0.162109 37.3838 1.38197 38.5245 3.98434C39.5021 1.38197 41.7428 0.162109 44.1055 0.162109C45.8165 0.162109 47.6498 0.853364 48.7904 2.43918C50.0533 4.18764 49.8088 6.70868 49.8088 8.90443V21.957C49.8088 22.3635 49.4422 22.6889 49.0349 22.6889H45.0018C44.5944 22.6482 44.2685 22.3229 44.2685 21.957V10.9782C44.2685 10.1243 44.35 7.92855 44.1463 7.11531C43.8612 5.7328 42.9242 5.32618 41.7835 5.32618C40.8058 5.32618 39.7873 5.97677 39.3799 7.03398C38.9725 8.09119 39.0133 9.79901 39.0133 10.9782V21.957C39.0133 22.3635 38.6467 22.6889 38.2393 22.6889H34.2062C33.7989 22.6482 33.473 22.3229 33.473 21.957V10.9782C33.473 8.66046 33.8397 5.28552 30.988 5.28552C28.0956 5.28552 28.2178 8.57914 28.2178 10.9782V21.957C28.1771 22.4042 27.8104 22.7295 27.403 22.7295Z" fill="#DBDCE0"/>
<path fill-rule="evenodd" clip-rule="evenodd" d="M101.994 0.203125C107.982 0.203125 111.242 5.32653 111.242 11.8731C111.242 18.1757 107.657 23.1771 101.994 23.1771C96.1278 23.1771 92.9092 18.0537 92.9092 11.6291C92.9092 5.20455 96.1678 0.203125 101.994 0.203125ZM102.035 4.43197C99.0603 4.43197 98.8567 8.49817 98.8567 11.0192C98.8567 13.5402 98.8158 18.9483 101.994 18.9483C105.131 18.9483 105.253 14.5975 105.253 11.9544C105.253 10.206 105.171 8.13221 104.642 6.46507C104.235 5.00124 103.339 4.43197 102.035 4.43197Z" fill="#DBDCE0"/>
<path fill-rule="evenodd" clip-rule="evenodd" d="M119.022 22.7295H114.989C114.582 22.6889 114.256 22.3635 114.256 21.9976V1.30065C114.297 0.934684 114.622 0.609391 115.03 0.609391H118.778C119.145 0.609391 119.429 0.853363 119.511 1.17866V4.35029H119.593C120.733 1.50396 122.322 0.162109 125.092 0.162109C126.884 0.162109 128.677 0.812702 129.818 2.60183C130.877 4.26897 130.877 7.03398 130.877 9.02639V22.0382C130.836 22.4042 130.51 22.6889 130.103 22.6889H126.07C125.703 22.6482 125.378 22.4042 125.337 22.0382V10.8562C125.337 8.57914 125.581 5.28552 122.811 5.28552C121.833 5.28552 120.937 5.93611 120.489 6.95266C119.918 8.21318 119.837 9.47368 119.837 10.8562V21.9976C119.796 22.4042 119.429 22.7295 119.022 22.7295Z" fill="#DBDCE0"/>
<path fill-rule="evenodd" clip-rule="evenodd" d="M65.2073 12.8492C65.2073 14.435 65.248 15.7362 64.4332 17.1187C63.7814 18.2572 62.7629 18.9484 61.6223 18.9484C60.0743 18.9484 59.178 17.7692 59.178 16.0208C59.178 12.6052 62.2741 11.9546 65.1665 11.9546V12.8492H65.2073ZM69.2811 22.6894C68.9959 22.9333 68.6293 22.9333 68.3441 22.7707C66.9997 21.6728 66.7553 21.1443 66.022 20.087C63.8221 22.3234 62.2334 23.0147 59.3818 23.0147C56.0005 23.0147 53.3525 20.9003 53.3525 16.7527C53.3525 13.4997 55.145 11.2634 57.6708 10.1655C59.8706 9.1896 62.926 9.02693 65.248 8.78299V8.25438C65.248 7.27849 65.3294 6.18062 64.7591 5.32672C64.2703 4.5948 63.3333 4.26951 62.4778 4.26951C60.9298 4.26951 59.5854 5.04209 59.2188 6.70923C59.1373 7.07518 58.8929 7.44114 58.5262 7.44114L54.6154 7.03452C54.2895 6.9532 53.9228 6.70923 54.0044 6.18062C54.9005 1.42317 59.1781 0 63.0074 0C64.9629 0 67.5293 0.528605 69.0773 1.99244C71.0328 3.82222 70.8698 6.26195 70.8698 8.9456V15.2076C70.8698 17.078 71.6438 17.9319 72.3771 18.9484C72.6215 19.3144 72.703 19.7617 72.3771 20.0057C71.5623 20.697 70.0958 21.9981 69.2811 22.6894Z" fill="#DBDCE0"/>
<path fill-rule="evenodd" clip-rule="evenodd" d="M12.289 12.8492C12.289 14.435 12.3297 15.7362 11.515 17.1187C10.8632 18.2572 9.84476 18.9484 8.70407 18.9484C7.15604 18.9484 6.2598 17.7692 6.2598 16.0208C6.2598 12.6052 9.35587 11.9546 12.2482 11.9546V12.8492H12.289ZM16.3628 22.6894C16.0776 22.9333 15.711 22.9333 15.4258 22.7707C14.0815 21.6728 13.837 21.1443 13.1038 20.087C10.904 22.3234 9.31516 23.0147 6.46349 23.0147C3.04151 23.0147 0.393555 20.9409 0.393555 16.7527C0.393555 13.4997 2.18602 11.2634 4.71177 10.1655C6.91161 9.1896 9.96698 9.02693 12.289 8.78299V8.25438C12.289 7.27849 12.3704 6.18062 11.8001 5.32672C11.3113 4.5948 10.3744 4.26951 9.5188 4.26951C7.97079 4.26951 6.62644 5.04209 6.2598 6.70923C6.17833 7.07518 5.9339 7.44114 5.56726 7.44114L1.65643 7.03452C1.33052 6.9532 0.963885 6.70923 1.04536 6.18062C1.98233 1.42317 6.2598 0 10.0892 0C12.0446 0 14.6518 0.528605 16.1999 1.99244C18.1552 3.82222 17.9923 6.26195 17.9923 8.9456V15.2076C17.9923 17.078 18.7664 17.9319 19.4996 18.9484C19.744 19.3144 19.8255 19.7617 19.4996 20.0057C18.6441 20.697 17.1776 21.9981 16.3628 22.6894Z" fill="#DBDCE0"/>
</g>
<defs>
<clipPath id="clip0_1682_7002">
<rect width="130.667" height="40" fill="white" transform="translate(0.393555)"/>
</clipPath>
</defs>
</svg>
