<svg width="34" height="40" viewBox="0 0 34 40" fill="none" xmlns="http://www.w3.org/2000/svg">
<g clip-path="url(#clip0_1682_6989)">
<path fill-rule="evenodd" clip-rule="evenodd" d="M18.5159 3.44331C21.1146 0.0194902 24.7268 0 24.7268 0C24.7268 0 25.2661 3.22242 22.6804 6.3214C19.9257 9.6348 16.7942 9.08907 16.7942 9.08907C16.7942 9.08907 16.203 6.48382 18.5159 3.44331Z" fill="#DBDCE0"/>
<path fill-rule="evenodd" clip-rule="evenodd" d="M17.1255 11.3503C18.4639 11.3503 20.9456 9.51172 24.1745 9.51172C29.7358 9.51172 31.9187 13.4683 31.9187 13.4683C31.9187 13.4683 27.6438 15.6577 27.6438 20.9591C27.6438 26.9427 32.9712 29.0087 32.9712 29.0087C32.9712 29.0087 29.2485 39.4945 24.2135 39.4945C21.9007 39.4945 20.1075 37.9353 17.6712 37.9353C15.1895 37.9353 12.7271 39.553 11.1225 39.553C6.52919 39.5465 0.727539 29.6063 0.727539 21.6088C0.727539 13.7411 5.63913 9.61565 10.2453 9.61565C13.2404 9.62212 15.5663 11.3503 17.1255 11.3503Z" fill="#DBDCE0"/>
</g>
<defs>
<clipPath id="clip0_1682_6989">
<rect width="32.6667" height="40" fill="white" transform="translate(0.727539)"/>
</clipPath>
</defs>
</svg>
