<svg width="120" height="40" viewBox="0 0 120 40" fill="none" xmlns="http://www.w3.org/2000/svg">
<g clip-path="url(#clip0_1682_6971)">
<path d="M29.7344 14.2918H15.7712V18.4064H25.7157C25.2359 24.1644 20.4376 26.6236 15.9152 26.6236C10.1212 26.6236 5.07097 22.0652 5.07097 15.6834C5.07097 9.45757 9.8813 4.67122 15.9272 4.67122C20.5815 4.67122 23.3285 7.64618 23.3285 7.64618L26.2075 4.67122C26.2075 4.67122 22.5129 0.556656 15.7832 0.556656C7.19423 0.54466 0.560547 7.77813 0.560547 15.5994C0.560547 23.2647 6.79836 30.7261 15.9871 30.7261C24.0723 30.7261 29.9863 25.1841 29.9863 17.0029C29.9863 15.2875 29.7344 14.2798 29.7344 14.2918Z" fill="#DBDCE0"/>
<path d="M41.5622 11.3047C35.8762 11.3047 31.8096 15.7431 31.8096 20.9253C31.8096 26.1794 35.7562 30.7139 41.6342 30.7139C46.9482 30.7139 51.3027 26.6473 51.3027 21.0453C51.3027 14.6155 46.2285 11.3047 41.5622 11.3047ZM41.6222 15.1194C44.4172 15.1194 47.0682 17.3745 47.0682 21.0213C47.0682 24.584 44.4292 26.9112 41.6102 26.9112C38.5152 26.9112 36.0681 24.4281 36.0681 20.9973C36.0681 17.6264 38.4792 15.1194 41.6222 15.1194Z" fill="#DBDCE0"/>
<path d="M62.6627 11.3047C56.9767 11.3047 52.9102 15.7431 52.9102 20.9253C52.9102 26.1794 56.8567 30.7139 62.7347 30.7139C68.0488 30.7139 72.4033 26.6473 72.4033 21.0453C72.3913 14.6155 67.3291 11.3047 62.6627 11.3047ZM62.7107 15.1194C65.5057 15.1194 68.1568 17.3745 68.1568 21.0213C68.1568 24.584 65.5177 26.9112 62.6987 26.9112C59.6038 26.9112 57.1567 24.4281 57.1567 20.9973C57.1567 17.6264 59.5678 15.1194 62.7107 15.1194Z" fill="#DBDCE0"/>
<path d="M83.4633 11.3164C78.2452 11.3164 74.1426 15.8868 74.1426 21.009C74.1426 26.851 78.8929 30.7256 83.3673 30.7256C86.1387 30.7256 87.602 29.622 88.6937 28.3624V30.2817C88.6937 33.6286 86.6662 35.6319 83.5952 35.6319C80.6323 35.6319 79.1448 33.4247 78.629 32.1771L74.8983 33.7366C76.2178 36.5316 78.8809 39.4466 83.6312 39.4466C88.8137 39.4466 92.772 36.1837 92.772 29.3341V11.6642H88.7053V13.5476C87.4462 12.2041 85.7303 11.3164 83.4633 11.3164ZM83.8472 15.1191C86.402 15.1191 89.0295 17.3023 89.0295 21.033C89.0295 24.8237 86.4145 26.9109 83.7872 26.9109C81.0042 26.9109 78.4251 24.6557 78.4251 21.069C78.4131 17.3502 81.1002 15.1191 83.8472 15.1191Z" fill="#DBDCE0"/>
<path d="M110.489 11.293C105.572 11.293 101.445 15.2036 101.445 20.9856C101.445 27.0915 106.051 30.7262 110.969 30.7262C115.072 30.7262 117.591 28.483 119.103 26.4677L115.744 24.2365C114.869 25.592 113.417 26.9116 110.994 26.9116C108.27 26.9116 107.011 25.4121 106.231 23.9726L119.247 18.5745L118.575 16.991C117.304 13.8841 114.376 11.293 110.489 11.293ZM110.658 15.0357C112.433 15.0357 113.704 15.9834 114.244 17.111L105.559 20.7457C105.188 17.9266 107.851 15.0357 110.658 15.0357Z" fill="#DBDCE0"/>
<path d="M99.4667 1.55273H95.4834V30.1507H99.4667V1.55273Z" fill="#DBDCE0"/>
</g>
<defs>
<clipPath id="clip0_1682_6971">
<rect width="119.167" height="40" fill="white" transform="translate(0.560547)"/>
</clipPath>
</defs>
</svg>
