<svg viewBox="0 0 77 26" width="77" height="26" fill="none" xmlns="http://www.w3.org/2000/svg"><path d="M18.965 9.303h-9.04v2.664h6.438c-.31 3.728-3.417 5.32-6.345 5.32-3.752 0-7.021-2.95-7.021-7.083 0-4.03 3.114-7.13 7.029-7.13C13.039 3.074 14.818 5 14.818 5l1.864-1.926S14.29.41 9.932.41C4.372.402.076 5.086.076 10.15c0 4.963 4.039 9.794 9.988 9.794 5.235 0 9.064-3.588 9.064-8.885 0-1.111-.163-1.764-.163-1.756ZM26.624 7.37c-3.682 0-6.315 2.873-6.315 6.228 0 3.402 2.555 6.338 6.361 6.338 3.44 0 6.26-2.633 6.26-6.26 0-4.163-3.285-6.307-6.306-6.307Zm.038 2.469c1.81 0 3.527 1.46 3.527 3.821 0 2.307-1.71 3.814-3.534 3.814-2.004 0-3.589-1.608-3.589-3.83 0-2.182 1.562-3.805 3.596-3.805ZM40.285 7.37c-3.681 0-6.314 2.873-6.314 6.228 0 3.402 2.555 6.338 6.36 6.338 3.441 0 6.26-2.633 6.26-6.26-.007-4.163-3.285-6.307-6.306-6.307Zm.031 2.469c1.81 0 3.526 1.46 3.526 3.821 0 2.307-1.708 3.814-3.533 3.814-2.004 0-3.589-1.608-3.589-3.83 0-2.182 1.561-3.805 3.596-3.805ZM53.753 7.377c-3.378 0-6.035 2.96-6.035 6.276 0 3.782 3.076 6.29 5.973 6.29 1.794 0 2.742-.714 3.449-1.53v1.243c0 2.167-1.313 3.465-3.301 3.465-1.919 0-2.882-1.43-3.216-2.237l-2.415 1.01c.854 1.809 2.578 3.696 5.654 3.696 3.355 0 5.918-2.112 5.918-6.547V7.603h-2.633v1.219c-.815-.87-1.926-1.445-3.394-1.445Zm.249 2.462c1.654 0 3.355 1.414 3.355 3.83 0 2.453-1.693 3.805-3.394 3.805-1.802 0-3.472-1.46-3.472-3.783-.008-2.407 1.732-3.852 3.51-3.852ZM71.251 7.361c-3.184 0-5.856 2.532-5.856 6.276 0 3.953 2.983 6.307 6.167 6.307 2.656 0 4.287-1.453 5.266-2.758l-2.175-1.444c-.566.877-1.506 1.732-3.075 1.732-1.764 0-2.579-.971-3.084-1.903l8.427-3.495-.434-1.025c-.824-2.012-2.72-3.69-5.236-3.69Zm.11 2.424c1.149 0 1.972.613 2.322 1.343l-5.624 2.354c-.24-1.826 1.484-3.697 3.301-3.697ZM64.114 1.055h-2.579V19.57h2.58V1.055Z" fill="#585C6D"/></svg>