<svg width="99" height="40" viewBox="0 0 99 40" fill="none" xmlns="http://www.w3.org/2000/svg">
<g clip-path="url(#clip0_1682_7012)">
<path d="M98.4385 2.83481H82.0596L83.1095 0H98.4385V2.83481Z" fill="#DBDCE0"/>
<path d="M54.7617 0H69.9856L70.9306 2.83481H54.7617V0Z" fill="#DBDCE0"/>
<path d="M42.6876 0C45.2074 0.209986 47.4122 1.15492 49.1972 2.83481H21.584V0H42.6876Z" fill="#DBDCE0"/>
<path d="M19.1693 0H0.0605469V2.83481H19.1693V0Z" fill="#DBDCE0"/>
<path d="M98.4387 8.0848H80.1699L81.1149 5.25H98.3337V8.0848H98.4387Z" fill="#DBDCE0"/>
<path d="M72.9255 8.08528H54.7617V5.35547H71.8756L72.9255 8.08528Z" fill="#DBDCE0"/>
<path d="M51.4024 5.35547C51.7175 6.30041 52.2423 7.03536 52.2423 8.19028H21.6895V5.35547H51.4024Z" fill="#DBDCE0"/>
<path d="M19.1693 5.35547H0.0605469V8.19028H19.1693V5.35547Z" fill="#DBDCE0"/>
<path d="M78.3857 13.4384L79.3307 10.6035H93.0848V13.4384H78.3857Z" fill="#DBDCE0"/>
<path d="M73.7658 10.6035L74.8157 13.4384H60.2217V10.6035H73.7658Z" fill="#DBDCE0"/>
<path d="M52.4522 10.6035C52.4522 11.5484 52.3472 12.5984 52.0323 13.4384H43.6328V10.6035H52.4522Z" fill="#DBDCE0"/>
<path d="M13.6044 10.6035H5.41504V13.4384H13.6044V10.6035Z" fill="#DBDCE0"/>
<path d="M35.4433 10.6035H27.2539V13.4384H35.4433V10.6035Z" fill="#DBDCE0"/>
<path d="M68.3061 16.4831V18.5829H60.2217V15.748H75.6556L76.6006 18.3729L77.5456 15.748H93.0845V18.5829H85.0001V16.4831L84.2651 18.5829H69.0411L68.3061 16.4831Z" fill="#DBDCE0"/>
<path d="M27.2539 15.8535H50.8773C50.3524 16.7984 49.4074 17.9533 48.5674 18.6883H27.3589C27.2539 18.5832 27.2539 15.8535 27.2539 15.8535Z" fill="#DBDCE0"/>
<path d="M13.6044 15.8535H5.41504V18.6883H13.6044V15.8535Z" fill="#DBDCE0"/>
<path d="M93.0845 21.1035H85V23.9382H93.0845V21.1035Z" fill="#DBDCE0"/>
<path d="M68.3061 21.1035H60.2217V23.9382H68.3061V21.1035Z" fill="#DBDCE0"/>
<path d="M83.4255 21.1035L82.4805 23.9382H71.0363L69.9863 21.1035H83.4255Z" fill="#DBDCE0"/>
<path d="M27.2539 21.1035H48.4624C49.4074 21.9434 50.3523 22.8884 50.9823 23.9382H27.2539V21.1035Z" fill="#DBDCE0"/>
<path d="M13.6044 23.9382V21.1035H5.41504V23.9382H13.6044Z" fill="#DBDCE0"/>
<path d="M93.0845 26.459H85V29.2938H93.0845V26.459Z" fill="#DBDCE0"/>
<path d="M68.3061 26.459H60.2217V29.2938H68.3061V26.459Z" fill="#DBDCE0"/>
<path d="M80.4849 29.2938C80.4849 29.2938 81.4299 26.459 81.5348 26.459H71.7705L72.8205 29.2938H80.4849Z" fill="#DBDCE0"/>
<path d="M27.2539 29.1883V26.3535H35.5483V29.1883H27.2539Z" fill="#DBDCE0"/>
<path d="M52.1373 26.459C52.5571 27.2989 52.5571 28.3488 52.6622 29.2938H43.8428V26.459H52.1373Z" fill="#DBDCE0"/>
<path d="M13.6044 26.459H5.41504V29.2938H13.6044V26.459Z" fill="#DBDCE0"/>
<path d="M98.4391 31.6035H85V34.4383H98.4391V31.6035Z" fill="#DBDCE0"/>
<path d="M68.2007 31.6035H54.7617V34.4383H68.2007V31.6035Z" fill="#DBDCE0"/>
<path d="M78.7003 34.4383H74.6056L73.5557 31.6035H79.6453L78.7003 34.4383Z" fill="#DBDCE0"/>
<path d="M0.0605469 31.6035V34.4383H19.1693V31.6035H0.0605469Z" fill="#DBDCE0"/>
<path d="M52.3474 31.6035C52.1373 32.5485 51.9274 33.7034 51.2975 34.4383H51.0874H21.6895V31.6035H52.3474Z" fill="#DBDCE0"/>
<path d="M76.8102 39.6868H76.4953L75.4453 36.957H77.8601L76.8102 39.6868Z" fill="#DBDCE0"/>
<path d="M98.4391 36.957H85V39.7918H98.4391V36.957Z" fill="#DBDCE0"/>
<path d="M21.6895 39.6864V36.8516C21.6895 36.8516 49.3025 36.8516 49.4075 36.8516C47.5177 38.6364 44.9979 39.5814 42.268 39.6864H21.6895Z" fill="#DBDCE0"/>
<path d="M68.2007 36.957H54.7617V39.7918H68.2007V36.957Z" fill="#DBDCE0"/>
<path d="M19.1693 36.957V39.7918H0.0605469V36.957H19.1693Z" fill="#DBDCE0"/>
</g>
<defs>
<clipPath id="clip0_1682_7012">
<rect width="98.3784" height="40" fill="white" transform="translate(0.0605469)"/>
</clipPath>
</defs>
</svg>
