<svg width="122" height="40" viewBox="0 0 122 40" fill="none" xmlns="http://www.w3.org/2000/svg">
<g clip-path="url(#clip0_1682_7068)">
<path d="M19.7024 39.5048C30.5762 39.5048 39.391 30.6613 39.391 19.7524C39.391 8.84347 30.5762 0 19.7024 0C8.82862 0 0.0136719 8.84347 0.0136719 19.7524C0.0136719 30.6613 8.82862 39.5048 19.7024 39.5048Z" fill="#DBDCE0"/>
<path d="M32.8326 19.7531C32.7739 18.1623 31.4427 16.9201 29.8521 16.9741C29.1474 16.9986 28.4769 17.2883 27.9679 17.7744C25.7265 16.2425 23.0935 15.403 20.3871 15.344L21.6645 9.18212L25.8782 10.0708C25.9957 11.1559 26.9647 11.9415 28.0462 11.8236C29.1278 11.7058 29.9109 10.7337 29.7934 9.64861C29.676 8.5635 28.7069 7.77792 27.6254 7.89576C27.0038 7.95956 26.4459 8.32291 26.1376 8.86297L21.3121 7.89576C20.9841 7.82212 20.6563 8.02835 20.5828 8.36218C20.5828 8.3671 20.5828 8.3671 20.5828 8.37202L19.1293 15.2262C16.3886 15.2704 13.7214 16.1149 11.4506 17.6565C10.2956 16.5666 8.47501 16.6206 7.38852 17.7842C6.30205 18.943 6.35589 20.7694 7.5158 21.8594C7.74091 22.0706 8.00026 22.2522 8.28904 22.3799C8.26944 22.6695 8.26944 22.9592 8.28904 23.2489C8.28904 27.6727 13.4278 31.2716 19.7656 31.2716C26.1033 31.2716 31.242 27.6776 31.242 23.2489C31.2616 22.9592 31.2616 22.6695 31.242 22.3799C32.2306 21.884 32.8522 20.8627 32.8326 19.7531ZM13.1439 21.7318C13.1439 20.6418 14.0298 19.7531 15.1162 19.7531C16.2027 19.7531 17.0885 20.6418 17.0885 21.7318C17.0885 22.8217 16.2027 23.7104 15.1162 23.7104C14.0248 23.7006 13.1439 22.8217 13.1439 21.7318ZM24.5812 27.1621C23.1816 28.2177 21.4686 28.7578 19.7166 28.6842C17.9645 28.7578 16.2516 28.2177 14.8519 27.1621C14.666 26.9362 14.7002 26.5975 14.9254 26.4108C15.1211 26.2489 15.4001 26.2489 15.6007 26.4108C16.7851 27.2799 18.2288 27.7218 19.697 27.6531C21.1652 27.7316 22.6139 27.3094 23.8129 26.4501C24.0283 26.239 24.3806 26.244 24.5911 26.46C24.8015 26.676 24.7966 27.0295 24.5812 27.2406V27.1621ZM24.2289 23.7792C23.1424 23.7792 22.2566 22.8905 22.2566 21.8005C22.2566 20.7105 23.1424 19.8219 24.2289 19.8219C25.3154 19.8219 26.2012 20.7105 26.2012 21.8005C26.2452 22.8905 25.3986 23.8086 24.3121 23.8528C24.2778 23.8528 24.2485 23.8528 24.2142 23.8528L24.2289 23.7792Z" fill="#10162F"/>
<path d="M109.861 13.7288C111.342 13.7288 112.543 12.5242 112.543 11.0382C112.543 9.55225 111.342 8.34766 109.861 8.34766C108.379 8.34766 107.179 9.55225 107.179 11.0382C107.179 12.5242 108.379 13.7288 109.861 13.7288Z" fill="#DBDCE0"/>
<path d="M71.8534 22.4876C72.8908 22.5612 73.7918 21.7756 73.8698 20.7299C73.8744 20.6709 73.8744 20.6022 73.8744 20.5384C73.86 20.1751 73.816 19.8068 73.7426 19.4484C73.1065 16.041 70.2042 13.532 66.7537 13.3945C62.8239 13.3945 59.54 17.018 59.54 21.4663C59.54 25.9147 62.7701 29.5431 66.7492 29.5431C68.858 29.6265 70.9039 28.7722 72.3229 27.206C72.9059 26.5677 72.8567 25.5808 72.2206 24.9966C72.1714 24.9524 72.1275 24.9131 72.0783 24.8787C71.4423 24.481 70.6154 24.5645 70.077 25.0849C69.1911 25.9687 68.0016 26.4744 66.7492 26.5137C64.5858 26.3419 62.8533 24.6431 62.6379 22.468H71.7944L71.8534 22.4876ZM66.7341 16.4337C68.6383 16.5614 70.2383 17.9263 70.6639 19.797H62.8141C63.2351 17.9214 64.8256 16.5565 66.7341 16.4337Z" fill="#DBDCE0"/>
<path d="M59.6966 14.9613C59.6966 14.2052 59.1387 13.5619 58.3899 13.4687C56.3687 13.1299 54.3132 13.8811 52.9869 15.4523V15.2559C52.9869 14.4163 52.3115 13.7387 51.4746 13.7387C50.6378 13.7387 49.9624 14.4163 49.9624 15.2559V27.6778C49.9428 28.4929 50.5643 29.1852 51.3768 29.2539C52.2039 29.3128 52.9282 28.6844 52.982 27.8546C52.9869 27.7957 52.9869 27.7368 52.982 27.6778V21.3048C52.8498 18.7616 54.7928 16.5963 57.3279 16.4588C57.5531 16.444 57.783 16.449 58.0082 16.4736H58.3116C59.0946 16.4048 59.6966 15.7518 59.6966 14.9613Z" fill="#DBDCE0"/>
<path d="M111.368 16.5913C111.368 15.7518 110.692 15.0742 109.855 15.0742C109.018 15.0742 108.343 15.7518 108.343 16.5913V27.6729C108.343 28.5125 109.018 29.1901 109.855 29.1901C110.692 29.1901 111.368 28.5125 111.368 27.6729V16.5913Z" fill="#DBDCE0"/>
<path d="M89.0508 8.17047C89.0508 7.33578 88.3754 6.6582 87.5439 6.6582C86.7118 6.6582 86.0364 7.33578 86.0364 8.17047V14.9461C85.0186 13.915 83.6186 13.3553 82.1747 13.3945C78.2449 13.3945 74.9609 17.018 74.9609 21.4663C74.9609 25.9147 78.1963 29.5431 82.1747 29.5431C83.6429 29.5873 85.0626 29.0227 86.1045 27.9768C86.34 28.7772 87.1767 29.2337 87.9741 28.9981C88.576 28.8214 89.0068 28.2911 89.0462 27.6577L89.0508 8.17047ZM82.1649 26.553C79.8501 26.553 77.9662 24.2945 77.9662 21.5008C77.9662 18.707 79.8357 16.4485 82.1649 16.4485C84.4947 16.4485 86.3642 18.707 86.3642 21.5008C86.3642 24.2945 84.4947 26.5284 82.1747 26.5284L82.1649 26.553Z" fill="#DBDCE0"/>
<path d="M104.82 8.17047C104.82 7.33578 104.145 6.6582 103.312 6.6582C102.48 6.6582 101.805 7.33578 101.805 8.17047V14.9461C100.787 13.915 99.3872 13.3553 97.9433 13.3945C94.0134 13.3945 90.7295 17.018 90.7295 21.4663C90.7295 25.9147 93.9649 29.5431 97.9433 29.5431C99.4115 29.5873 100.831 29.0227 101.874 27.9768C102.109 28.7772 102.945 29.2337 103.743 28.9981C104.345 28.8214 104.775 28.2911 104.815 27.6577L104.82 8.17047ZM97.9387 26.553C95.6239 26.553 93.7393 24.2945 93.7393 21.5008C93.7393 18.707 95.6088 16.4485 97.9387 16.4485C100.269 16.4485 102.138 18.707 102.138 21.5008C102.138 24.2945 100.269 26.5284 97.9485 26.5284L97.9387 26.553Z" fill="#DBDCE0"/>
<path d="M119.202 27.6664V16.4327H120.509C121.234 16.4768 121.85 15.922 121.894 15.2003C121.894 15.1757 121.899 15.1462 121.899 15.1168C121.963 14.395 121.429 13.7567 120.715 13.6929C120.676 13.688 120.632 13.688 120.593 13.688H119.208V11.6013C119.217 10.7912 118.6 10.1087 117.793 10.0351C116.966 9.97613 116.246 10.6046 116.188 11.4344C116.183 11.4687 116.183 11.508 116.183 11.5424V13.7224H114.871C114.147 13.6782 113.53 14.233 113.486 14.9548C113.486 14.9793 113.482 15.0088 113.482 15.0382C113.418 15.76 113.951 16.3982 114.666 16.4621C114.705 16.467 114.749 16.467 114.788 16.467H116.095V27.6713C116.095 28.506 116.77 29.1835 117.602 29.1835C118.434 29.2376 119.144 28.5993 119.198 27.7646C119.202 27.7351 119.202 27.7008 119.202 27.6664Z" fill="#DBDCE0"/>
</g>
<defs>
<clipPath id="clip0_1682_7068">
<rect width="121.967" height="40" fill="white" transform="translate(0.0136719)"/>
</clipPath>
</defs>
</svg>
