<svg viewBox="0 0 94 28" width="94" height="28" fill="none" xmlns="http://www.w3.org/2000/svg"><path d="M14.758.133C7.086.133.889 6.346.889 14c0 7.672 6.214 13.868 13.869 13.868 7.671 0 13.868-6.213 13.868-13.868S22.412.133 14.757.133Zm6.362 20.015a.861.861 0 0 1-1.193.282c-3.264-1.988-7.357-2.436-12.195-1.342a.857.857 0 0 1-1.027-.646.858.858 0 0 1 .646-1.028c5.286-1.21 9.826-.696 13.47 1.541a.866.866 0 0 1 .299 1.193Zm1.69-3.777a1.096 1.096 0 0 1-1.491.364c-3.728-2.287-9.411-2.95-13.819-1.624-.58.166-1.176-.149-1.342-.712-.166-.58.15-1.177.73-1.342 5.036-1.525 11.3-.796 15.59 1.839.498.298.647.96.332 1.474Zm.15-3.944c-4.475-2.651-11.848-2.9-16.123-1.607-.679.215-1.408-.182-1.623-.862-.216-.68.182-1.408.861-1.623 4.905-1.492 13.057-1.193 18.193 1.855.613.365.812 1.16.447 1.773-.33.63-1.143.829-1.756.464Zm15.673.514c-2.402-.564-2.816-.978-2.816-1.823 0-.795.745-1.325 1.855-1.325 1.078 0 2.155.414 3.281 1.242.033.033.083.033.116.033.05 0 .083-.033.1-.066l1.176-1.657a.157.157 0 0 0-.033-.215c-1.342-1.077-2.834-1.59-4.606-1.59-2.585 0-4.391 1.557-4.391 3.777 0 2.386 1.557 3.23 4.258 3.877 2.287.53 2.684.978 2.684 1.756 0 .879-.779 1.425-2.038 1.425-1.392 0-2.535-.464-3.81-1.574-.034-.033-.067-.033-.117-.033s-.082.017-.099.05l-1.309 1.557c-.05.067-.05.166.017.216 1.49 1.325 3.313 2.021 5.285 2.021 2.784 0 4.59-1.524 4.59-3.877-.033-1.988-1.226-3.082-4.143-3.794Zm10.422-2.37c-1.21 0-2.203.48-3.015 1.458v-1.093a.149.149 0 0 0-.15-.15h-2.153a.148.148 0 0 0-.15.15V23.13c0 .082.067.149.15.149h2.154c.083 0 .149-.067.149-.15v-3.843c.812.911 1.806 1.358 3.016 1.358 2.236 0 4.523-1.723 4.523-5.037-.017-3.297-2.287-5.037-4.523-5.037Zm2.022 5.037c0 1.674-1.027 2.85-2.519 2.85-1.474 0-2.568-1.226-2.568-2.85 0-1.623 1.11-2.85 2.568-2.85 1.459 0 2.519 1.193 2.519 2.85Zm8.318-5.037c-2.9 0-5.153 2.22-5.153 5.07 0 2.817 2.253 5.02 5.12 5.02 2.899 0 5.169-2.22 5.169-5.053 0-2.816-2.253-5.037-5.136-5.037Zm0 7.904c-1.541 0-2.701-1.243-2.701-2.867 0-1.64 1.127-2.833 2.667-2.833 1.541 0 2.718 1.243 2.718 2.883-.017 1.624-1.144 2.817-2.684 2.817Zm11.3-7.705h-2.353V8.351a.149.149 0 0 0-.15-.15H66.04c-.083 0-.166.067-.166.15v2.42h-1.027a.148.148 0 0 0-.15.148v1.84c0 .082.067.149.15.149h1.027v4.772c0 1.922.961 2.899 2.85 2.899.762 0 1.408-.166 2.005-.497.05-.033.083-.083.083-.133v-1.756c0-.05-.034-.1-.083-.133a.124.124 0 0 0-.15 0 2.812 2.812 0 0 1-1.259.299c-.679 0-.994-.315-.994-1.01v-4.425h2.353c.083 0 .15-.066.15-.149v-1.84c.032-.099-.034-.165-.133-.165Zm8.235.017v-.299c0-.878.33-1.259 1.076-1.259.448 0 .812.083 1.21.216.05.016.1 0 .15-.017.032-.033.065-.083.065-.132V7.489a.16.16 0 0 0-.116-.149c-.43-.132-.96-.248-1.789-.248-1.988 0-3.032 1.11-3.032 3.23v.448h-1.027c-.083 0-.166.066-.166.15v1.855c0 .083.066.15.166.15h1.027v7.356c0 .083.066.149.165.149h2.138c.083 0 .166-.066.166-.15v-7.356h2.005l3.065 7.357c-.348.779-.696.928-1.16.928-.381 0-.779-.116-1.177-.332-.033-.016-.082-.016-.132-.016-.033.016-.083.05-.1.083l-.728 1.59c-.034.083 0 .166.066.199.762.414 1.441.58 2.286.58 1.591 0 2.47-.746 3.231-2.717l3.728-9.61a.161.161 0 0 0-.016-.15.15.15 0 0 0-.133-.066h-2.237c-.066 0-.132.05-.149.1l-2.286 6.528-2.502-6.545c-.017-.066-.083-.1-.15-.1l-3.644.034Zm-4.772-.017h-2.154c-.083 0-.166.066-.166.15v9.36c0 .084.066.15.166.15h2.154c.082 0 .165-.066.165-.15v-9.344c-.016-.1-.083-.166-.165-.166Zm-1.06-4.258c-.846 0-1.542.696-1.542 1.54 0 .846.696 1.542 1.541 1.542s1.541-.696 1.541-1.541c0-.862-.696-1.541-1.54-1.541Zm18.788 7.274c-.844 0-1.507-.68-1.507-1.508a1.52 1.52 0 0 1 1.524-1.524c.862 0 1.508.679 1.508 1.507 0 .829-.68 1.525-1.525 1.525Zm.017-2.883c-.779 0-1.359.613-1.359 1.375 0 .745.58 1.359 1.36 1.359.778 0 1.358-.614 1.358-1.376-.017-.745-.597-1.358-1.359-1.358Zm.331 1.508.431.596h-.364l-.381-.547h-.332v.547h-.298v-1.59h.712c.365 0 .614.182.614.513-.017.265-.166.43-.382.48Zm-.265-.713h-.397v.497h.397c.2 0 .315-.1.315-.248 0-.15-.116-.249-.315-.249Z" fill="#585C6D"/></svg>