<svg width="135" height="40" viewBox="0 0 135 40" fill="none" xmlns="http://www.w3.org/2000/svg">
<g clip-path="url(#clip0_1682_7079)">
<path d="M130.997 16.2305H132.046C132.331 16.2305 132.57 16.302 132.713 16.4688C132.832 16.588 132.903 16.7787 132.903 16.9932C132.903 17.3745 132.713 17.589 132.403 17.7082L132.975 18.5424H132.379L131.878 17.8036H131.497V18.5424H130.997V16.2305ZM132.021 17.3507C132.26 17.3507 132.403 17.2077 132.403 17.017C132.403 16.8025 132.26 16.6833 131.998 16.6833H131.497V17.3507H132.021Z" fill="#DBDCE0"/>
<path d="M131.904 19.6152C130.711 19.6152 129.734 18.638 129.734 17.4463C129.734 16.2546 130.711 15.2773 131.904 15.2773C133.095 15.2773 134.072 16.2546 134.072 17.4463C134.072 18.638 133.119 19.6152 131.904 19.6152ZM131.904 15.4919C130.831 15.4919 129.973 16.3499 129.973 17.4225C129.973 18.495 130.854 19.3531 131.904 19.3531C132.952 19.3531 133.834 18.4712 133.834 17.4225C133.834 16.3737 132.976 15.4919 131.904 15.4919Z" fill="#DBDCE0"/>
<path d="M20.9298 39.8988C31.9476 39.8988 40.8793 30.9671 40.8793 19.9494C40.8793 8.93167 31.9476 0 20.9298 0C9.91214 0 0.980469 8.93167 0.980469 19.9494C0.980469 30.9671 9.91214 39.8988 20.9298 39.8988Z" fill="#DBDCE0"/>
<path d="M53.9648 10.6539C54.5844 10.6539 57.2301 10.4632 60.4715 12.8944C60.6145 13.0135 60.6384 13.2042 60.5431 13.371L58.9938 15.5399C58.8746 15.7068 58.6601 15.7306 58.5171 15.6115C58.2311 15.3969 57.7544 15.0394 57.1585 14.7534C56.229 14.2767 55.0135 13.8953 53.9648 13.8953C52.916 13.8953 51.2238 14.229 51.2238 15.8974C51.2238 17.2322 52.4155 17.7327 56.0621 18.6384C58.4456 19.2581 61.2104 20.4022 61.2104 24.025C61.2104 27.3618 58.4217 29.4831 54.5844 29.4831C52.2725 29.4831 49.1025 28.6012 47.1004 26.5753C46.9813 26.4561 46.9812 26.2654 47.0766 26.1224L48.8165 24.0727C48.9356 23.9296 49.174 23.9058 49.2932 24.0488C49.9606 24.6685 51.8911 26.2416 54.5606 26.2416C57.7067 26.2416 57.5876 24.3349 57.5876 24.0488C57.5876 23.453 57.1585 22.5949 55.5855 22.1659C54.0362 21.7369 50.1274 20.998 48.6497 19.282C47.744 18.2094 47.6248 17.0415 47.6248 16.1358C47.6248 14.1337 48.9356 10.6539 53.9648 10.6539Z" fill="#DBDCE0"/>
<path d="M70.2439 15.0156C67.4314 15.0156 65.9058 17.0893 65.9058 17.0893V15.6592C65.9058 15.4685 65.7628 15.3255 65.5721 15.3255H62.6882C62.4975 15.3255 62.3545 15.4685 62.3545 15.6592V33.0106C62.3545 33.2013 62.4975 33.3443 62.6882 33.3443H65.5721C65.7628 33.3443 65.9058 33.2013 65.9058 33.0106V27.6002C65.9058 27.6002 67.3121 29.4831 70.3868 29.4831C72.8176 29.4831 76.7265 27.5287 76.7265 22.309C76.7508 17.0654 73.0563 15.0156 70.2439 15.0156ZM69.5049 26.3847C67.5501 26.3847 65.882 24.6686 65.882 22.2375C65.882 20.7598 66.8117 18.1379 69.4812 18.1379C72.1508 18.1379 73.1514 20.283 73.1514 22.2375C73.1278 24.1919 72.055 26.3847 69.5049 26.3847Z" fill="#DBDCE0"/>
<path d="M85.0921 15.0156C80.54 15.0156 77.7275 18.7338 77.7275 22.2613C77.7275 26.1225 80.7308 29.507 85.1164 29.507C89.5256 29.507 92.5046 26.0272 92.5046 22.2613C92.5046 18.4955 89.6449 15.0156 85.0921 15.0156ZM85.1164 26.3847C83.2567 26.3847 81.2311 24.8354 81.2311 22.2613C81.2311 19.6872 83.0666 18.1618 85.1164 18.1618C86.6889 18.1618 88.9295 19.4727 88.9295 22.2613C88.9295 25.0499 86.9754 26.3847 85.1164 26.3847Z" fill="#DBDCE0"/>
<path d="M101.609 18.0666V15.6116C101.609 15.4209 101.466 15.2779 101.275 15.2779H97.9863V11.9411C97.9863 11.7504 97.8433 11.6074 97.6525 11.6074H94.8164C94.6256 11.6074 94.4827 11.7504 94.4827 11.9411V15.2779H93.1004C92.9096 15.2779 92.7666 15.4209 92.7666 15.6116V18.0666C92.7666 18.2573 92.9096 18.4003 93.1004 18.4003H94.4827C94.4827 18.4003 94.4827 23.8106 94.4827 25.3599C94.4827 26.9091 95.1981 29.4117 98.32 29.4117C99.7502 29.4117 100.99 28.9112 101.443 28.6967C101.561 28.6491 101.633 28.5298 101.633 28.3869V25.9796C101.633 25.7651 101.395 25.6221 101.204 25.7651C100.87 25.9796 100.346 26.2179 99.5594 26.2179C98.082 26.2179 97.9863 25.2169 97.9863 24.5018C97.9863 23.7868 97.9863 18.4003 97.9863 18.4003H101.275C101.466 18.4003 101.609 18.2573 101.609 18.0666Z" fill="#DBDCE0"/>
<path d="M104.851 13.5847C106.062 13.5847 107.044 12.603 107.044 11.392C107.044 10.1809 106.062 9.19922 104.851 9.19922C103.64 9.19922 102.658 10.1809 102.658 11.392C102.658 12.603 103.64 13.5847 104.851 13.5847Z" fill="#DBDCE0"/>
<path d="M106.257 29.1966H103.421C103.23 29.1966 103.087 29.0537 103.087 28.863V15.611C103.087 15.4204 103.23 15.2773 103.421 15.2773H106.257C106.448 15.2773 106.591 15.4204 106.591 15.611V28.863C106.591 29.0298 106.448 29.1966 106.257 29.1966Z" fill="#DBDCE0"/>
<path d="M109.737 18.4011H108.379C108.188 18.4011 108.045 18.258 108.045 18.0674V15.6125C108.045 15.4218 108.188 15.2788 108.379 15.2788H109.737C109.737 15.2788 109.737 14.9689 109.737 14.3731C109.737 13.7772 109.832 10.0352 114.051 10.0352C116.149 10.0352 116.816 10.5119 116.816 10.5119C116.816 10.5119 116.816 12.8 116.816 13.0383C116.816 13.2767 116.72 13.4912 116.458 13.3958C116.196 13.3005 115.41 13.086 114.766 13.086C114.122 13.086 113.241 13.4674 113.241 14.5875C113.241 14.9927 113.241 15.2788 113.241 15.2788H118.413C118.556 15.2788 118.675 15.3741 118.722 15.4933L122.322 24.8363L125.563 15.5409C125.611 15.3979 125.73 15.3026 125.873 15.3026H129.043C129.186 15.3026 129.305 15.4456 129.234 15.5886C128.495 17.5192 124.276 28.4354 123.728 29.8178C123.132 31.3432 122.131 33.4167 119.223 33.4167C117.531 33.4167 116.458 32.8447 116.006 32.5587C115.863 32.4634 115.815 32.2965 115.886 32.1297L116.911 29.9131C116.959 29.8178 117.078 29.7939 117.15 29.8416C117.436 30.0323 118.127 30.366 118.913 30.366C120.057 30.366 120.582 29.0074 120.582 29.0074L116.149 18.4249H113.241V28.8882C113.241 29.0789 113.097 29.2219 112.907 29.2219H110.047C109.856 29.2219 109.713 29.0789 109.713 28.8882L109.737 18.4011Z" fill="#DBDCE0"/>
<path d="M28.9385 29.46C28.7002 29.46 28.4856 29.3885 28.2711 29.2693C20.4058 24.5501 11.0865 27.2672 10.9912 27.3149C10.3 27.5294 9.5611 27.1242 9.34661 26.4331C9.13212 25.7419 9.5373 25.003 10.2285 24.7885C10.6575 24.6693 20.7395 21.6662 29.6059 27.0051C30.2256 27.3865 30.4162 28.1729 30.0587 28.7927C29.8204 29.2217 29.3913 29.46 28.9385 29.46Z" fill="#10162F"/>
<path d="M31.2024 24.0729C30.9403 24.0729 30.6781 24.0014 30.4398 23.8584C20.5723 18.1858 10.6095 21.475 10.5142 21.5226C9.70382 21.8087 8.82192 21.3796 8.53595 20.5693C8.24992 19.7589 8.67897 18.877 9.48933 18.591C9.94218 18.4242 20.8822 14.8013 31.9652 21.1651C32.704 21.5941 32.9662 22.5475 32.5372 23.2864C32.275 23.7869 31.7506 24.0729 31.2024 24.0729Z" fill="#10162F"/>
<path d="M33.6569 17.9718C33.3471 17.9718 33.0611 17.9003 32.775 17.7573C21.406 11.7748 9.70335 15.35 9.58414 15.3977C8.58315 15.7075 7.51058 15.1593 7.20073 14.1582C6.89088 13.1572 7.43907 12.0847 8.44014 11.7748C8.98833 11.6079 21.7635 7.69909 34.5388 14.3966C35.4683 14.8971 35.8258 16.0411 35.3492 16.9707C35.0155 17.5904 34.3481 17.9718 33.6569 17.9718Z" fill="#10162F"/>
</g>
<defs>
<clipPath id="clip0_1682_7079">
<rect width="133.115" height="40" fill="white" transform="translate(0.980469)"/>
</clipPath>
</defs>
</svg>
