<svg width="112" height="40" viewBox="0 0 112 40" fill="none" xmlns="http://www.w3.org/2000/svg">
<g clip-path="url(#clip0_1682_7094)">
<path d="M6.43996 28.0713C6.90418 29.3164 7.54694 30.382 8.38014 31.2679C9.20143 32.1539 10.1775 32.8244 11.3082 33.2913C12.4391 33.7582 13.665 33.9977 14.9982 33.9977C16.2837 33.9977 17.4978 33.7582 18.6286 33.2673C19.7594 32.7765 20.7473 32.094 21.5924 31.208C22.4375 30.3221 23.0921 29.2685 23.5564 28.0473C24.0206 26.8261 24.2586 25.4493 24.2586 23.9408V0.558594H29.9126V38.4394H24.3182V34.9195C23.0684 36.2485 21.5805 37.2781 19.8784 38.0084C18.1762 38.7267 16.3313 39.0859 14.3673 39.0859C12.3557 39.0859 10.487 38.7387 8.74913 38.0324C7.0113 37.326 5.49963 36.3323 4.22602 35.0273C2.95241 33.7222 1.92875 32.1659 1.20268 30.346C0.464693 28.5262 0.0957031 26.4909 0.0957031 24.252V0.558594H5.7496V23.9288C5.7496 25.4493 5.97575 26.8261 6.43996 28.0713Z" fill="#DBDCE0"/>
<path d="M39.6377 0.558594V14.3509C40.8875 13.0938 42.3397 12.088 43.9942 11.3458C45.6487 10.6035 47.4341 10.2323 49.3743 10.2323C51.3859 10.2323 53.2665 10.6154 55.0281 11.3697C56.7899 12.1239 58.3134 13.1536 59.5989 14.4586C60.8844 15.7636 61.908 17.296 62.6699 19.056C63.4197 20.8279 63.8007 22.6956 63.8007 24.6831C63.8007 26.6705 63.4197 28.5382 62.6699 30.2862C61.92 32.0341 60.8963 33.5546 59.5989 34.8596C58.3134 36.1527 56.7779 37.1823 55.0281 37.9485C53.2665 38.7027 51.3859 39.0859 49.3743 39.0859C47.4341 39.0859 45.6368 38.7147 43.9704 37.9725C42.3039 37.2302 40.8399 36.2365 39.5901 34.9674V38.4274H34.21V0.558594H39.6377ZM40.2567 28.4184C40.7447 29.5678 41.4113 30.5854 42.2682 31.4475C43.1252 32.3095 44.137 33.0039 45.2797 33.5067C46.4224 34.0096 47.6602 34.261 48.9934 34.261C50.2789 34.261 51.5049 34.0096 52.6476 33.5067C53.7903 33.0039 54.7901 32.3214 55.6353 31.4475C56.4803 30.5854 57.1469 29.5678 57.6468 28.4184C58.1467 27.2691 58.3967 26.0239 58.3967 24.6831C58.3967 23.3421 58.1467 22.097 57.6468 20.9237C57.1469 19.7504 56.4684 18.7328 55.6353 17.8707C54.7901 17.0087 53.8022 16.3263 52.6476 15.8474C51.493 15.3685 50.2789 15.1171 48.9934 15.1171C47.7079 15.1171 46.4818 15.3565 45.3391 15.8474C44.1966 16.3383 43.1848 17.0087 42.3278 17.8707C41.4707 18.7328 40.7803 19.7504 40.2804 20.9237C39.7806 22.097 39.5306 23.3541 39.5306 24.6831C39.5306 26.0239 39.7687 27.2691 40.2567 28.4184Z" fill="#DBDCE0"/>
<path d="M66.847 19.1167C67.5612 17.3807 68.5491 15.8601 69.8109 14.5432C71.0726 13.2262 72.5485 12.1846 74.2744 11.4303C76.0004 10.6761 77.8573 10.293 79.8688 10.293C81.8447 10.293 83.6659 10.6521 85.3561 11.3705C87.0463 12.0888 88.4984 13.0945 89.7125 14.3756C90.9267 15.6566 91.8789 17.1771 92.5693 18.9251C93.2477 20.6731 93.5929 22.5767 93.5929 24.6359V26.4198H71.263C71.4416 27.5332 71.7987 28.5749 72.3342 29.5327C72.8699 30.4905 73.5484 31.3166 74.3459 32.023C75.1553 32.7293 76.0717 33.28 77.0835 33.6752C78.1072 34.0702 79.1903 34.2738 80.333 34.2738C83.5944 34.2738 86.2369 32.9209 88.2366 30.2151L92.1645 33.1364C90.8076 34.9801 89.1174 36.4168 87.1058 37.4704C85.0942 38.512 82.8326 39.0387 80.333 39.0387C78.2857 39.0387 76.3812 38.6796 74.6077 37.9612C72.8342 37.243 71.2868 36.2252 69.9775 34.9323C68.6682 33.6392 67.6326 32.1067 66.8828 30.3587C66.1328 28.6108 65.752 26.7072 65.752 24.6479C65.7757 22.6845 66.1328 20.8527 66.847 19.1167ZM74.4054 16.9856C72.8818 18.2666 71.87 19.9667 71.3701 22.0978H88.1057C87.6415 19.9667 86.6416 18.2666 85.118 16.9856C83.5944 15.7045 81.809 15.07 79.7617 15.07C77.7144 15.058 75.9289 15.7045 74.4054 16.9856Z" fill="#DBDCE0"/>
<path d="M103.758 17.6067C102.615 18.8638 102.032 20.5878 102.032 22.7428V38.4387H96.6045V10.8423H101.985V14.2544C102.663 13.141 103.556 12.255 104.651 11.6084C105.746 10.9619 107.043 10.6387 108.555 10.6387H110.436V15.727H108.174C106.377 15.703 104.901 16.3376 103.758 17.6067Z" fill="#DBDCE0"/>
</g>
<defs>
<clipPath id="clip0_1682_7094">
<rect width="111.25" height="40" fill="white" transform="translate(0.0957031)"/>
</clipPath>
</defs>
</svg>
