<svg width="173" height="40" viewBox="0 0 173 40" fill="none" xmlns="http://www.w3.org/2000/svg">
<g clip-path="url(#clip0_1682_7105)">
<path d="M53.9096 6.67713C53.2789 4.33456 51.4319 2.48753 49.0893 1.85683C44.8096 0.685547 27.6907 0.685547 27.6907 0.685547C27.6907 0.685547 10.5719 0.685547 6.29224 1.81179C3.99472 2.44247 2.10264 4.33456 1.47194 6.67713C0.345703 10.9568 0.345703 19.8316 0.345703 19.8316C0.345703 19.8316 0.345703 28.7514 1.47194 32.9861C2.10264 35.3286 3.94966 37.1756 6.29224 37.8064C10.617 38.9777 27.6907 38.9777 27.6907 38.9777C27.6907 38.9777 44.8096 38.9777 49.0893 37.8514C51.4319 37.2207 53.2789 35.3737 53.9096 33.0311C55.0359 28.7514 55.0359 19.8766 55.0359 19.8766C55.0359 19.8766 55.0809 10.9568 53.9096 6.67713Z" fill="#DBDCE0"/>
<path d="M22.2402 28.0308L36.4758 19.8318L22.2402 11.6328V28.0308Z" fill="#10162F"/>
<path d="M79.7682 35.5536C78.687 34.8328 77.9212 33.7067 77.4707 32.1299C77.0203 30.5982 76.7949 28.5259 76.7949 26.0032V22.5343C76.7949 19.9666 77.0653 17.8942 77.5608 16.3175C78.1014 14.7408 78.9123 13.6146 79.9935 12.8937C81.1197 12.1729 82.5613 11.8125 84.3633 11.8125C86.1203 11.8125 87.5618 12.1729 88.643 12.8937C89.7241 13.6146 90.49 14.7858 90.9856 16.3175C91.4811 17.8492 91.7514 19.9214 91.7514 22.5343V26.0032C91.7514 28.571 91.5262 30.5982 91.0306 32.175C90.535 33.7067 89.7693 34.8779 88.688 35.5987C87.6068 36.3195 86.1203 36.6799 84.2732 36.6799C82.3811 36.6349 80.8494 36.2744 79.7682 35.5536ZM85.8499 31.7695C86.1653 31.0037 86.3005 29.6972 86.3005 27.9403V20.462C86.3005 18.7501 86.1653 17.4888 85.8499 16.6779C85.5346 15.867 85.039 15.5067 84.2732 15.5067C83.5524 15.5067 83.0118 15.9121 82.7415 16.6779C82.4262 17.4888 82.291 18.7501 82.291 20.462V27.9403C82.291 29.6972 82.4262 31.0037 82.7415 31.7695C83.0118 32.5354 83.5524 32.9408 84.3182 32.9408C85.039 32.9408 85.5346 32.5804 85.8499 31.7695Z" fill="#DBDCE0"/>
<path d="M162.93 26.0484V27.2647C162.93 28.7964 162.975 29.9677 163.065 30.7335C163.155 31.4994 163.335 32.085 163.651 32.4003C163.921 32.7607 164.372 32.9409 165.003 32.9409C165.813 32.9409 166.353 32.6256 166.669 31.9949C166.984 31.3642 167.119 30.3281 167.165 28.8414L171.805 29.1117C171.85 29.337 171.85 29.6073 171.85 29.9677C171.85 32.1751 171.264 33.8419 170.048 34.9231C168.831 36.0043 167.119 36.5449 164.912 36.5449C162.254 36.5449 160.407 35.6889 159.326 34.0221C158.245 32.3553 157.704 29.7875 157.704 26.2736V22.084C157.704 18.48 158.245 15.8672 159.371 14.2003C160.497 12.5335 162.389 11.7227 165.048 11.7227C166.894 11.7227 168.336 12.083 169.327 12.7588C170.318 13.4345 170.993 14.5157 171.399 15.9122C171.805 17.3538 171.985 19.336 171.985 21.8588V25.9582H162.93V26.0484ZM163.606 15.9572C163.335 16.3176 163.155 16.8582 163.065 17.6241C162.975 18.3899 162.93 19.5612 162.93 21.1379V22.8498H166.894V21.1379C166.894 19.6062 166.85 18.435 166.759 17.6241C166.669 16.8132 166.444 16.2726 166.174 15.9572C165.903 15.6419 165.453 15.4617 164.912 15.4617C164.282 15.4617 163.876 15.5969 163.606 15.9572Z" fill="#DBDCE0"/>
<path d="M66.6141 25.5961L60.4873 3.38672H65.8482L68.0106 13.4327C68.5512 15.9105 68.9566 18.0278 69.2269 19.7847H69.3621C69.5423 18.5233 69.9477 16.4511 70.5784 13.4778L72.8309 3.38672H78.1917L71.9749 25.5961V36.2278H66.6591V25.5961H66.6141Z" fill="#DBDCE0"/>
<path d="M109.186 12.2617V36.2731H104.951L104.501 33.3449H104.366C103.239 35.5524 101.482 36.6785 99.1849 36.6785C97.6082 36.6785 96.4369 36.138 95.6711 35.1018C94.9052 34.0657 94.5449 32.444 94.5449 30.1915V12.2617H99.9508V29.8761C99.9508 30.9573 100.086 31.7232 100.311 32.1736C100.536 32.6242 100.942 32.8494 101.482 32.8494C101.933 32.8494 102.383 32.7142 102.834 32.3988C103.285 32.1286 103.599 31.7682 103.78 31.3177V12.2617H109.186Z" fill="#DBDCE0"/>
<path d="M136.891 12.2617V36.2731H132.656L132.205 33.3449H132.071C130.944 35.5524 129.187 36.6785 126.89 36.6785C125.313 36.6785 124.141 36.138 123.376 35.1018C122.61 34.0657 122.249 32.444 122.249 30.1915V12.2617H127.655V29.8761C127.655 30.9573 127.791 31.7232 128.016 32.1736C128.241 32.6242 128.647 32.8494 129.187 32.8494C129.638 32.8494 130.088 32.7142 130.538 32.3988C130.99 32.1286 131.304 31.7682 131.485 31.3177V12.2617H136.891Z" fill="#DBDCE0"/>
<path d="M123.872 7.75848H118.511V36.2298H113.24V7.75848H107.879V3.38867H123.872V7.75848Z" fill="#DBDCE0"/>
<path d="M154.776 16.0922C154.461 14.5605 153.919 13.4793 153.199 12.8036C152.478 12.1278 151.442 11.7674 150.181 11.7674C149.19 11.7674 148.243 12.0377 147.388 12.6234C146.532 13.164 145.856 13.9298 145.406 14.8308H145.36V2.17188H140.135V36.2293H144.594L145.135 33.9768H145.27C145.676 34.7877 146.306 35.4185 147.162 35.9139C148.019 36.3645 148.919 36.6348 149.955 36.6348C151.802 36.6348 153.109 35.7789 153.965 34.112C154.821 32.4451 155.271 29.7873 155.271 26.2283V22.4442C155.226 19.6961 155.091 17.5788 154.776 16.0922ZM149.82 25.8679C149.82 27.6248 149.731 28.9763 149.595 29.9675C149.46 30.9586 149.19 31.6793 148.874 32.0847C148.514 32.4903 148.063 32.7155 147.522 32.7155C147.072 32.7155 146.667 32.6253 146.306 32.4001C145.946 32.1749 145.631 31.8595 145.406 31.454V17.8491C145.586 17.2185 145.901 16.6778 146.351 16.2273C146.802 15.8218 147.298 15.5966 147.793 15.5966C148.334 15.5966 148.784 15.8218 149.055 16.2273C149.37 16.6778 149.55 17.3987 149.686 18.3897C149.82 19.4258 149.865 20.8674 149.865 22.7145V25.8679H149.82Z" fill="#DBDCE0"/>
</g>
<defs>
<clipPath id="clip0_1682_7105">
<rect width="172.308" height="40" fill="white" transform="translate(0.345703)"/>
</clipPath>
</defs>
</svg>
